<?xml version="1.0" encoding="utf-8"?>
<!-- Generator: Adobe Illustrator 24.2.1, SVG Export Plug-In . SVG Version: 6.00 Build 0)  -->
<svg version="1.1" id="Layer_1" xmlns="http://www.w3.org/2000/svg" xmlns:xlink="http://www.w3.org/1999/xlink" x="0px" y="0px"
	 viewBox="0 0 432 768.96" style="enable-background:new 0 0 432 768.96;" xml:space="preserve">
<style type="text/css">
	.st0{fill:#FFFFFF;}
</style>
<g id="Layer_2_1_">
	<g id="Layer_1-2">
		<g>
			<path class="st0" d="M242.49,758.35c-75.52,0-151.05,0-226.57,0c0-216.58,0-433.16,0-649.74c0.26,0.89,0.57,1.76,0.76,2.66
				c0.39,1.82,0.64,3.68,1.08,5.48c1.99,8.06,5.1,15.69,8.98,23.01c1.97,3.72,4.25,7.23,6.89,10.51c4.43,5.5,8.78,11.06,13.19,16.57
				c0.53,0.66,0.81,1.31,0.81,2.17c0.01,2.46,0.04,4.93,0.16,7.39c0.17,3.52,0.33,7.05,0.65,10.57c0.51,5.57,1.32,11.11,2.28,16.62
				c0.56,3.21,1.11,6.42,2.25,9.51c1.27,3.45,2.87,6.74,4.55,9.99c1.01,1.95,2.05,3.89,3.05,5.84c0.35,0.7,0.78,1.39,0.73,2.22
				c-0.56,0.47-1.03,0.11-1.5-0.1c-3.79-1.66-6.96-4.15-9.68-7.24c-3.4-3.86-5.71-8.33-7.38-13.16c-1.1-3.18-1.6-6.46-1.62-9.81
				c-0.03-4.62,0.76-9.15,1.76-13.64c0.3-1.36,0.63-2.72,0.91-4.09c0.07-0.35,0.21-0.79-0.37-1.1c-0.31,0.27-0.72,0.5-0.97,0.86
				c-0.99,1.42-2.05,2.8-2.85,4.33c-3.41,6.45-4.81,13.35-4.49,20.63c0.28,6.42,2.14,12.29,5.92,17.53c2.03,2.82,4.22,5.5,6.65,7.97
				c7.8,7.94,16.61,14.56,26.33,19.96c0.87,0.48,1.73,0.99,2.56,1.55c0.43,0.29,0.83,0.68,1.16,1.08c0.45,0.54,0.26,1.16-0.41,1.46
				c-0.36,0.16-0.75,0.31-1.14,0.35c-0.93,0.1-1.86,0.19-2.79,0.17c-4.48-0.12-8.86-0.91-13.16-2.16c-3.08-0.89-5.69-2.52-7.95-4.78
				c-2.17-2.17-4.09-4.56-5.9-7.04c-1.18-1.61-2.32-3.26-3.5-4.86c-0.3-0.4-0.52-0.96-1.26-0.99c0,0.39-0.08,0.78,0.01,1.13
				c1.58,6.37,4.32,12.16,8.67,17.12c2.92,3.33,6.5,5.65,10.81,6.83c3.94,1.08,7.98,1.44,12.02,1.79c2.98,0.26,5.97,0.46,8.94,0.85
				c4.16,0.54,8,1.95,11.32,4.62c0.88,0.71,1.8,1.37,2.67,2.1c3.02,2.51,6.01,5.06,9.04,7.57c8.37,6.93,17.55,12.49,27.74,16.35
				c4.42,1.67,8.8,3.42,13.15,5.27c8.14,3.47,16.23,7.04,24.35,10.57c0.36,0.16,0.73,0.34,1.05,0.57
				c4.21,2.98,8.07,6.32,11.17,10.48c0.51,0.69,0.96,1.44,1.37,2.21c0.89,1.67,0.93,3.47,0.53,5.26c-0.41,1.81-1.6,2.57-3.41,2.14
				c-0.89-0.21-1.76-0.61-2.56-1.07c-2.45-1.4-4.55-3.24-6.38-5.38c-1.47-1.72-2.88-3.49-4.34-5.22c-3.16-3.73-7.01-6.53-11.55-8.32
				c-1.91-0.75-3.88-1.38-5.86-1.96c-3.57-1.05-7.17-2.01-10.76-3.02c-3.78-1.06-7.55-2.14-11.33-3.18c-1.3-0.36-2.64-0.4-3.97-0.26
				c-1.07,0.11-1.66,0.8-1.64,1.89c0.01,0.46,0.1,0.93,0.19,1.38c1.46,7.22,3.84,14.13,7.1,20.72c1.72,3.47,3.75,6.75,6.39,9.63
				c1.68,1.83,3.6,3.34,5.83,4.46c5.7,2.88,11.67,3.46,17.87,2.16c2.68-0.56,5.25-1.46,7.78-2.48c3.17-1.28,6.37-1.25,9.55-0.07
				c3.93,1.45,6.71,4.22,8.69,7.86c2.89,5.31,3.86,11.03,3.52,16.99c-0.24,4.12-0.88,8.2-1.69,12.26
				c-1.19,6.01-2.69,11.95-3.53,18.03c-0.67,4.82-1.21,9.65-1.37,14.51c-0.12,3.39-0.14,6.79-0.06,10.19
				c0.07,2.79,0.25,5.59,0.57,8.37c0.58,5.03,1.37,10.03,1.93,15.06c0.69,6.15,1.31,12.31,1.81,18.48
				c0.46,5.58,0.59,11.17,0.53,16.77c-0.06,6.17-0.83,12.21-2.79,18.08c-0.93,2.78-1.87,5.55-2.78,8.34
				c-1.37,4.2-2.26,8.49-2.43,12.91c-0.16,4.01,0.16,8,0.88,11.94c2.33,12.74,6.52,24.83,12.97,36.1c0.13,0.23,0.23,0.47,0.35,0.73
				c-0.13,0.32-0.27,0.62-0.39,0.93c-0.63,1.67-0.33,3.14,0.95,4.39c0.43,0.42,0.87,0.83,1.37,1.16c0.77,0.52,1.56,1.03,2.41,1.41
				c1.1,0.5,1.58,1.31,1.71,2.47c0.17,1.52,0.38,3.04,0.62,4.55c1.13,7.04,2.38,14.05,3.86,21.02c1.96,9.26,4.38,18.39,7.62,27.29
				c3.51,9.64,7.41,19.12,11.68,28.45c1.2,2.63,2.01,5.3,2.43,8.17c1.31,8.89,2.76,17.76,4.22,26.63
				c1.35,8.14,2.77,16.28,4.19,24.41c1.4,8.07,2.84,16.13,4.26,24.19c0.68,3.87,1.36,7.74,2.02,11.61c0.15,0.88,0.44,1.66,1.15,2.26
				C242.27,757.86,242.36,758.13,242.49,758.35z"/>
			<path class="st0" d="M15.92,106.61c0-31.72,0-63.44,0-95.16c131.73,0,263.47,0,395.2,0c0,31.32,0,62.64,0,93.96
				c-0.12-0.65-0.25-1.29-0.34-1.94c-0.16-1.18-0.22-2.39-0.46-3.56c-1.13-5.38-3.15-10.44-5.6-15.34
				c-0.14-0.28-0.35-0.52-0.79-1.18c0.09,0.92,0.1,1.36,0.18,1.79c0.9,4.79,1.47,9.59,1.49,14.48c0.01,4.27-0.77,8.32-2.36,12.27
				c-2.99,7.44-6.83,14.44-10.84,21.35c-0.11,0.19-0.31,0.34-0.64,0.69c0.04-0.46,0.04-0.66,0.07-0.84c0.63-3.61,1-7.26,1.18-10.92
				c0.25-5.06,0.14-10.11-0.2-15.17c-0.39-5.75-1.42-11.36-3.31-16.8c-2.23-6.39-5.32-12.34-9.31-17.81
				c-0.12-0.16-0.22-0.34-0.37-0.47c-0.15-0.14-0.27-0.46-0.66-0.17c0.49,1.71,1.04,3.41,1.47,5.15c0.43,1.75,1.07,3.46,1.11,5.3
				c-0.35-0.42-0.62-0.87-0.84-1.35c-3.08-6.43-6.22-12.82-9.69-19.05c-1.56-2.79-3.18-5.55-5.1-8.11
				c-3.52-4.69-7.22-9.24-11.07-13.65c-0.23-0.26-0.41-0.66-1.03-0.61c0.58,0.89,1.09,1.72,1.63,2.53
				c3.59,5.37,7.09,10.81,10.16,16.5c1.04,1.93,2.09,3.88,2.69,6c1.05,3.71,2.07,7.44,3.08,11.16c0.07,0.25,0.36,0.58-0.11,0.9
				c-0.39-0.54-0.79-1.06-1.17-1.59c-3.74-5.27-7.63-10.43-11.8-15.37c-3.79-4.48-7.77-8.77-12.2-12.64
				c-5.59-4.89-11.75-8.95-18.19-12.62c-12.47-7.11-25.58-12.78-39.18-17.32c-6.13-2.04-12.32-3.82-18.68-5.01
				c-0.45-0.08-0.93-0.4-1.42,0.15c0.38,0.16,0.74,0.32,1.1,0.46c6.44,2.53,12.91,4.98,19.3,7.62c9.35,3.87,18.49,8.2,27.33,13.14
				c4.89,2.73,9.63,5.69,13.91,9.33c0.21,0.18,0.63,0.29,0.35,0.82c-0.43-0.06-0.89-0.1-1.34-0.18c-3.93-0.69-7.86-1.4-11.79-2.09
				c-5.44-0.94-10.92-1.7-16.42-2.14c-2.25-0.18-4.52-0.09-6.79-0.09c-0.27,0-0.69-0.11-0.75,0.49c0.21,0.09,0.44,0.23,0.68,0.27
				c2.16,0.41,4.31,0.83,6.47,1.21c5.31,0.94,10.61,1.89,15.84,3.22c3.55,0.91,7.08,1.91,10.29,3.73c2.6,1.47,5.19,3,7.67,4.66
				c8.7,5.82,16.87,12.34,24.94,19c0.56,0.46,1.08,0.99,1.55,1.55c6.2,7.42,11.95,15.17,16.99,23.44c2.53,4.16,4.86,8.42,6.8,12.89
				c0.41,0.94,0.65,1.87,0.57,2.9c-0.15,1.86-0.24,3.72-0.47,5.57c-0.96,7.83-2.93,15.42-5.6,22.84c-0.12,0.34-0.32,0.65-0.61,1.23
				c-0.19-0.66-0.33-1.03-0.41-1.4c-0.56-2.53-1.05-5.09-1.68-7.6c-2.95-11.78-8.34-22.28-16.64-31.21
				c-0.26-0.28-0.45-0.66-0.97-0.64c-0.32,0.6,0.03,1.15,0.22,1.67c0.65,1.74,1.36,3.47,2.07,5.19c2.97,7.2,5.97,14.39,8.28,21.84
				c1.43,4.58,2.58,9.22,3.17,14c0.45,3.64,0.77,7.29,0.77,10.95c0,4.46-0.08,8.93-0.27,13.38c-0.24,5.72-1.05,11.41-0.99,17.14
				c0,0.31,0.08,0.68-0.45,0.92c-0.25-0.19-0.62-0.36-0.82-0.65c-0.57-0.82-1.12-1.66-1.6-2.53c-2.18-3.98-3.87-8.18-5.5-12.41
				c-2.22-5.73-5.45-10.81-9.61-15.3c-0.81-0.87-1.78-1.6-2.71-2.35c-0.23-0.18-0.59-0.34-0.89-0.02c-0.23,0.66,0.14,1.18,0.42,1.69
				c0.53,1,1.11,1.97,1.67,2.95c2.87,4.97,5.42,10.08,7.3,15.52c3.45,10,4.51,20.24,2.88,30.71c-1.5,9.67-5.26,18.39-11.21,26.16
				c-2.39,3.13-5.05,6.02-8.09,8.54c-0.34,0.28-0.64,0.72-1.26,0.4c-0.22-0.89-0.08-1.81,0.04-2.73c0.3-2.44,0.66-4.89,0.86-7.34
				c0.13-1.72,0.1-3.46,0-5.19c-0.09-1.66-0.37-3.31-0.56-4.96c-0.82-7.42-1.99-14.78-3.68-22.05c-1.34-5.78-3-11.46-5.33-16.93
				c-2.13-5-4.92-9.59-8.63-13.6c-0.45-0.49-0.9-0.99-1.41-1.42c-1.01-0.85-2.34-0.87-3.31-0.12c-1.04,0.8-1.35,2.2-0.71,3.41
				c0.31,0.58,0.72,1.12,1.09,1.67c3.14,4.67,5.65,9.65,7.25,15.06c0.66,2.23,1.29,4.48,1.85,6.74c1.68,6.8,2.72,13.71,3.52,20.66
				c0.04,0.33,0.07,0.66,0.06,1c-0.04,1.77-1.28,2.81-3.04,2.56c-0.33-0.05-0.66-0.12-0.96-0.25c-1.03-0.45-2.1-0.85-3.07-1.42
				c-3.57-2.08-6.45-4.9-8.76-8.32c-0.41-0.61-0.8-1.24-1.28-1.78c-0.71-0.79-1.96-1-2.94-0.53c-0.97,0.47-1.51,1.25-1.53,2.38
				c-0.02,0.71,0.25,1.32,0.61,1.87c1.22,1.91,2.4,3.85,3.75,5.66c2.71,3.65,5.92,6.84,9.29,9.88c1.38,1.25,2.81,2.46,4.26,3.63
				c0.96,0.78,1.45,1.69,1.3,2.94c-0.21,1.72-0.32,3.45-0.58,5.16c-0.86,5.57-2.71,10.84-5.19,15.88c-2.6,5.27-5.78,10.19-9.13,15
				c-4.43,6.36-9.88,11.68-16.26,16.06c-3.47,2.38-7.12,4.44-11.02,6.03c-0.79,0.32-1.64,0.56-2.48,0.71
				c-0.88,0.16-1.44-0.53-1.08-1.35c0.4-0.91,0.83-1.84,1.44-2.61c1.74-2.19,3.5-4.37,5.39-6.42c2.87-3.12,5.14-6.62,6.95-10.43
				c2.27-4.78,3.78-9.81,4.73-15c0.9-4.92,1.36-9.89,0.91-14.9c-0.14-1.54-0.4-3.04-1.1-4.43c-0.14-0.28-0.27-0.63-0.79-0.52
				c-0.04,0.22-0.11,0.47-0.13,0.72c-0.4,4.61-1.5,9.06-3.05,13.4c-2.02,5.66-4.69,11.02-7.72,16.21
				c-6.81,11.65-16.1,20.79-27.75,27.56c-0.46,0.27-0.92,0.57-1.42,0.72c-1.04,0.31-1.97,0.09-2.72-0.75
				c-0.67-0.76-0.8-1.83-0.28-2.79c0.22-0.41,0.51-0.78,0.77-1.17c2.59-3.8,5.07-7.66,7.26-11.71c1.92-3.56,3.09-7.34,3.71-11.33
				c0.83-5.4,1.28-10.85,1.47-16.3c0.16-4.53,0.18-9.06,0.15-13.59c-0.02-2.46-0.25-4.92-0.44-7.37c-0.06-0.79-0.28-1.57-0.44-2.35
				c-0.02-0.08-0.18-0.12-0.31-0.21c-0.11,0.16-0.28,0.3-0.31,0.47c-0.17,0.98-0.33,1.97-0.46,2.96
				c-0.68,5.15-1.28,10.31-2.05,15.44c-0.73,4.88-1.83,9.68-3.46,14.35c-2.74,7.85-6.61,15.12-11.26,21.98
				c-3.22,4.75-6.81,9.21-10.94,13.22c-2.74,2.66-5.72,4.99-9.17,6.66c-5.65,2.73-11.66,4.13-17.88,4.54
				c-6.13,0.41-12.06-0.77-17.85-2.7c-4.74-1.59-8.96-4.05-12.58-7.52c-1.25-1.2-2.5-2.4-3.68-3.67c-4.65-5-8.57-10.53-12.03-16.4
				c-5.29-8.97-9.05-18.51-10.74-28.84c-0.75-4.6-1.41-9.21-1.93-13.84c-0.23-1.98-0.51-3.96-0.8-5.94
				c-0.04-0.27-0.28-0.51-0.54-0.94c-0.14,0.49-0.25,0.74-0.28,1c-0.21,1.85-0.52,3.7-0.6,5.55c-0.3,6.79-0.24,13.58,0.17,20.37
				c0.26,4.32,0.66,8.63,1.28,12.92c0.59,4.06,1.78,7.9,3.73,11.52c2.12,3.94,4.51,7.7,7.03,11.39c0.34,0.5,0.71,0.97,0.99,1.5
				c0.54,0.98,0.43,1.98-0.25,2.79c-0.74,0.87-1.8,1.16-2.88,0.74c-0.43-0.17-0.82-0.43-1.23-0.66
				c-8.06-4.61-15.03-10.53-20.94-17.7c-5.42-6.58-9.51-13.97-12.87-21.77c-2.49-5.78-4.27-11.76-4.79-18.07
				c-0.01-0.16-0.14-0.3-0.26-0.53c-0.22,0.2-0.39,0.31-0.48,0.46c-0.82,1.42-1.12,2.98-1.23,4.59c-0.42,6.37,0.2,12.64,1.74,18.82
				c0.92,3.69,2.12,7.28,3.72,10.74c2.03,4.39,4.71,8.32,8.04,11.85c1.69,1.79,3.18,3.76,4.69,5.7c0.52,0.67,0.9,1.48,1.23,2.27
				c0.35,0.84-0.17,1.55-1.04,1.39c-0.91-0.17-1.82-0.43-2.66-0.79c-8.4-3.56-15.74-8.68-21.83-15.46
				c-6.68-7.43-11.92-15.84-15.98-24.97c-2.35-5.28-3.61-10.84-4.19-16.58c-0.19-1.88,0.22-3.28,1.83-4.49
				c3.15-2.36,5.96-5.12,8.67-7.97c2.77-2.9,5.29-5.99,7.35-9.44c0.41-0.69,0.82-1.38,1.12-2.12c0.52-1.3,0.04-2.61-1.12-3.28
				c-1.14-0.66-2.56-0.4-3.41,0.67c-0.45,0.57-0.83,1.21-1.24,1.81c-2.09,3.07-4.7,5.62-7.84,7.59c-1.17,0.73-2.48,1.26-3.75,1.83
				c-0.41,0.19-0.9,0.28-1.35,0.31c-1.43,0.1-2.58-0.93-2.67-2.37c-0.03-0.46,0.01-0.93,0.06-1.4c0.8-6.95,1.91-13.85,3.51-20.66
				c1.89-8.05,4.78-15.65,9.61-22.44c0.23-0.32,0.47-0.65,0.64-1.01c0.53-1.15,0.2-2.49-0.76-3.24c-0.98-0.77-2.3-0.77-3.31,0.07
				c-0.51,0.42-0.95,0.93-1.4,1.42c-4.29,4.6-7.28,9.99-9.54,15.81c-2.83,7.29-4.65,14.86-6.05,22.53
				c-0.96,5.24-1.68,10.52-2.27,15.82c-0.31,2.78-0.69,5.56-0.37,8.37c0.28,2.51,0.57,5.03,0.89,7.54c0.19,1.55,0.21,1.6-0.21,2.99
				c-0.35-0.21-0.72-0.36-0.98-0.61c-1.73-1.66-3.55-3.24-5.14-5.02c-11.69-13.15-16.25-28.61-14.56-45.99
				c0.67-6.87,2.58-13.45,5.35-19.78c1.74-3.97,3.82-7.76,5.98-11.51c0.47-0.81,0.9-1.63,1.28-2.48c0.12-0.26,0.02-0.61,0.02-1.11
				c-0.56,0.26-1.03,0.37-1.36,0.65c-0.87,0.72-1.74,1.46-2.49,2.3c-4.15,4.59-7.38,9.76-9.57,15.57c-1.58,4.18-3.3,8.29-5.46,12.21
				c-0.48,0.87-1.07,1.68-1.67,2.48c-0.15,0.19-0.54,0.2-0.95,0.33c-0.03-0.76-0.09-1.35-0.07-1.94c0.09-3.34-0.35-6.65-0.54-9.97
				c-0.17-2.99-0.49-5.98-0.57-8.97c-0.11-4.13-0.14-8.26-0.07-12.38c0.08-4.73,0.6-9.43,1.52-14.08c0.99-5.05,2.49-9.95,4.31-14.75
				c2.39-6.28,4.95-12.5,7.42-18.75c0.46-1.17,0.87-2.37,1.28-3.57c0.07-0.2-0.02-0.44-0.06-0.97c-0.49,0.48-0.78,0.72-1.02,1
				c-1.04,1.21-2.09,2.42-3.11,3.65c-4.46,5.38-7.87,11.37-10.4,17.88c-2.4,6.17-4,12.55-5.13,19.06c-0.06,0.37,0.01,0.82-0.57,1.06
				c-0.19-0.39-0.41-0.78-0.56-1.19c-1.36-3.55-2.53-7.15-3.51-10.82c-1.48-5.54-2.54-11.16-2.99-16.89
				c-0.11-1.44,0.12-2.74,0.69-4.07c1.53-3.55,3.25-7.01,5.16-10.36c5.53-9.69,12.11-18.65,19.25-27.2
				c0.51-0.61,1.11-1.15,1.73-1.65c4.47-3.58,8.92-7.19,13.45-10.69c5.17-3.99,10.46-7.81,16.06-11.17
				c3.27-1.96,6.72-3.49,10.4-4.52c6.09-1.72,12.31-2.84,18.53-3.95c2.16-0.38,4.31-0.81,6.47-1.21c0.34-0.06,0.65-0.17,0.52-0.73
				c-2.57-0.11-5.16-0.16-7.74,0.08c-7.03,0.63-14,1.69-20.95,2.93c-2.29,0.41-4.58,0.85-6.87,1.27c-0.53,0.1-0.53,0.09-1.5-0.21
				c0.43-0.38,0.8-0.75,1.2-1.07c2.55-2.04,5.18-3.97,7.97-5.67c5.63-3.43,11.45-6.52,17.39-9.37c11.22-5.4,22.71-10.14,34.41-14.41
				c0.42-0.15,0.83-0.34,1.25-0.5c-0.5-0.21-0.96-0.24-1.38-0.15c-3.5,0.81-7.03,1.51-10.48,2.49
				c-15.48,4.39-30.29,10.46-44.44,18.12c-6.45,3.49-12.65,7.38-18.41,11.94c-6.09,4.82-11.32,10.49-16.26,16.45
				c-3.87,4.67-7.49,9.53-11,14.48c-0.24,0.34-0.56,0.63-1.11,1.24c0.12-0.72,0.15-1.05,0.23-1.36c0.93-3.4,1.83-6.82,2.84-10.2
				c0.44-1.46,0.98-2.91,1.69-4.26c1.61-3.06,3.27-6.11,5.07-9.06c2.11-3.47,4.39-6.83,6.57-10.26c0.34-0.54,0.95-0.98,0.84-1.74
				c0.46-0.01,0.55-0.29,0.51-1.06c-0.25,0.59-0.36,0.84-0.47,1.1c-0.77,0.08-1.05,0.77-1.44,1.25c-3.04,3.71-6.06,7.43-9.07,11.16
				c-1.97,2.44-3.67,5.07-5.22,7.79c-2.8,4.92-5.42,9.93-7.87,15.03c-1.47,3.06-2.94,6.12-4.43,9.17c-0.14,0.29-0.38,0.54-0.57,0.81
				c-0.02-1.01,0.16-1.92,0.36-2.81c0.21-0.91,0.43-1.81,0.66-2.72c0.23-0.9,0.48-1.8,0.73-2.7c0.25-0.9,0.54-1.79,0.75-2.69
				c0.19-0.85,0.66-1.65,0.63-2.9c-0.61,0.78-1.03,1.29-1.41,1.82c-2.35,3.25-4.33,6.71-6.05,10.33c-2.7,5.69-4.61,11.62-5.53,17.86
				c-0.68,4.62-0.82,9.28-0.97,13.93c-0.06,1.99,0.08,3.99,0.14,5.99c0.13,3.93,0.5,7.84,1.2,11.71c0.05,0.26,0.26,0.6-0.2,0.87
				c-0.3-0.45-0.61-0.88-0.87-1.33c-0.9-1.56-1.8-3.12-2.66-4.69c-2.8-5.15-5.49-10.35-7.68-15.8c-1.43-3.55-2.26-7.22-2.37-11.07
				c-0.12-4.15,0.32-8.24,0.94-12.33c0.25-1.67,0.55-3.32,0.9-5.4c-0.38,0.49-0.52,0.63-0.61,0.81c-2.8,5.47-5.06,11.15-6.19,17.22
				C16.71,103,16.63,104.87,15.92,106.61z"/>
			<path d="M73.84,39.82c0.1,0.76-0.5,1.2-0.84,1.74c-2.18,3.43-4.46,6.79-6.57,10.26c-1.8,2.96-3.45,6-5.07,9.06
				c-0.71,1.35-1.26,2.8-1.69,4.26c-1.01,3.38-1.91,6.79-2.84,10.2c-0.08,0.31-0.11,0.64-0.23,1.36c0.55-0.61,0.87-0.9,1.11-1.24
				c3.5-4.95,7.12-9.81,11-14.48c4.94-5.96,10.18-11.63,16.26-16.45c5.76-4.56,11.96-8.44,18.41-11.94
				c14.15-7.67,28.96-13.73,44.44-18.12c3.45-0.98,6.98-1.68,10.48-2.49c0.43-0.1,0.88-0.06,1.38,0.15
				c-0.42,0.17-0.83,0.35-1.25,0.5c-11.69,4.26-23.19,9.01-34.41,14.41c-5.94,2.86-11.76,5.95-17.39,9.37
				c-2.79,1.7-5.43,3.62-7.97,5.67c-0.4,0.32-0.77,0.69-1.2,1.07c0.97,0.3,0.97,0.31,1.5,0.21c2.29-0.42,4.58-0.86,6.87-1.27
				c6.95-1.24,13.92-2.3,20.95-2.93c2.59-0.23,5.18-0.19,7.74-0.08c0.12,0.56-0.18,0.66-0.52,0.73c-2.16,0.41-4.31,0.83-6.47,1.21
				c-6.22,1.1-12.44,2.23-18.53,3.95c-3.68,1.04-7.13,2.56-10.4,4.52c-5.61,3.36-10.89,7.19-16.06,11.17
				c-4.53,3.5-8.98,7.11-13.45,10.69c-0.62,0.5-1.22,1.04-1.73,1.65c-7.15,8.55-13.72,17.5-19.25,27.2
				c-1.91,3.36-3.63,6.81-5.16,10.36c-0.57,1.32-0.8,2.63-0.69,4.07c0.45,5.73,1.51,11.35,2.99,16.89
				c0.98,3.67,2.15,7.28,3.51,10.82c0.16,0.41,0.38,0.8,0.56,1.19c0.58-0.24,0.5-0.69,0.57-1.06c1.12-6.51,2.72-12.89,5.13-19.06
				c2.53-6.51,5.95-12.5,10.4-17.88c1.02-1.23,2.06-2.44,3.11-3.65c0.24-0.28,0.53-0.53,1.02-1c0.04,0.53,0.12,0.78,0.06,0.97
				c-0.41,1.2-0.82,2.39-1.28,3.57c-2.47,6.25-5.04,12.47-7.42,18.75c-1.82,4.79-3.32,9.7-4.31,14.75
				c-0.92,4.65-1.44,9.35-1.52,14.08c-0.07,4.13-0.04,8.26,0.07,12.38c0.08,2.99,0.4,5.98,0.57,8.97c0.19,3.32,0.63,6.63,0.54,9.97
				c-0.02,0.59,0.04,1.18,0.07,1.94c0.41-0.13,0.81-0.14,0.95-0.33c0.6-0.79,1.19-1.61,1.67-2.48c2.16-3.92,3.88-8.03,5.46-12.21
				c2.19-5.81,5.42-10.97,9.57-15.57c0.76-0.84,1.63-1.57,2.49-2.3c0.33-0.28,0.79-0.39,1.36-0.65c0,0.49,0.1,0.85-0.02,1.11
				c-0.38,0.85-0.81,1.68-1.28,2.48c-2.17,3.75-4.24,7.54-5.98,11.51c-2.77,6.33-4.68,12.91-5.35,19.78
				c-1.68,17.38,2.87,32.84,14.56,45.99c1.59,1.79,3.41,3.37,5.14,5.02c0.27,0.25,0.63,0.4,0.98,0.61c0.42-1.38,0.4-1.44,0.21-2.99
				c-0.31-2.51-0.61-5.02-0.89-7.54c-0.31-2.81,0.06-5.59,0.37-8.37c0.6-5.29,1.32-10.57,2.27-15.82c1.4-7.68,3.22-15.24,6.05-22.53
				c2.26-5.82,5.25-11.21,9.54-15.81c0.45-0.49,0.89-0.99,1.4-1.42c1.01-0.84,2.32-0.84,3.31-0.07c0.96,0.75,1.29,2.09,0.76,3.24
				c-0.17,0.36-0.41,0.69-0.64,1.01c-4.82,6.79-7.72,14.39-9.61,22.44c-1.6,6.82-2.71,13.71-3.51,20.66
				c-0.05,0.46-0.09,0.93-0.06,1.4c0.09,1.44,1.23,2.47,2.67,2.37c0.46-0.03,0.94-0.13,1.35-0.31c1.27-0.57,2.58-1.1,3.75-1.83
				c3.14-1.96,5.74-4.52,7.84-7.59c0.41-0.6,0.79-1.24,1.24-1.81c0.85-1.08,2.26-1.34,3.41-0.67c1.16,0.67,1.64,1.98,1.12,3.28
				c-0.29,0.74-0.71,1.43-1.12,2.12c-2.05,3.45-4.58,6.54-7.35,9.44c-2.72,2.84-5.53,5.61-8.67,7.97c-1.61,1.21-2.02,2.61-1.83,4.49
				c0.58,5.74,1.84,11.3,4.19,16.58c4.06,9.13,9.3,17.54,15.98,24.97c6.09,6.78,13.43,11.9,21.83,15.46
				c0.85,0.36,1.76,0.62,2.66,0.79c0.87,0.16,1.4-0.55,1.04-1.39c-0.33-0.79-0.71-1.6-1.23-2.27c-1.51-1.94-3-3.92-4.69-5.7
				c-3.33-3.53-6.01-7.45-8.04-11.85c-1.6-3.46-2.79-7.05-3.72-10.74c-1.55-6.18-2.16-12.46-1.74-18.82
				c0.11-1.61,0.41-3.17,1.23-4.59c0.09-0.15,0.26-0.26,0.48-0.46c0.11,0.23,0.24,0.37,0.26,0.53c0.52,6.31,2.3,12.29,4.79,18.07
				c3.36,7.8,7.45,15.18,12.87,21.77c5.9,7.17,12.87,13.09,20.94,17.7c0.4,0.23,0.8,0.49,1.23,0.66c1.08,0.43,2.15,0.14,2.88-0.74
				c0.68-0.8,0.79-1.81,0.25-2.79c-0.29-0.52-0.66-1-0.99-1.5c-2.51-3.69-4.91-7.45-7.03-11.39c-1.95-3.62-3.14-7.47-3.73-11.52
				c-0.62-4.29-1.02-8.59-1.28-12.92c-0.41-6.79-0.46-13.58-0.17-20.37c0.08-1.86,0.38-3.7,0.6-5.55c0.03-0.26,0.14-0.5,0.28-1
				c0.26,0.44,0.5,0.68,0.54,0.94c0.29,1.98,0.57,3.95,0.8,5.94c0.53,4.63,1.18,9.24,1.93,13.84c1.69,10.33,5.45,19.87,10.74,28.84
				c3.46,5.87,7.38,11.41,12.03,16.4c1.18,1.27,2.43,2.47,3.68,3.67c3.62,3.47,7.84,5.93,12.58,7.52c5.79,1.94,11.72,3.11,17.85,2.7
				c6.23-0.41,12.23-1.81,17.88-4.54c3.45-1.67,6.43-3.99,9.17-6.66c4.12-4.01,7.71-8.46,10.94-13.22
				c4.65-6.86,8.52-14.14,11.26-21.98c1.63-4.67,2.73-9.47,3.46-14.35c0.77-5.13,1.37-10.29,2.05-15.44
				c0.13-0.99,0.29-1.98,0.46-2.96c0.03-0.17,0.2-0.31,0.31-0.47c0.14,0.09,0.3,0.13,0.31,0.21c0.17,0.78,0.38,1.56,0.44,2.35
				c0.19,2.46,0.42,4.92,0.44,7.37c0.03,4.53,0.01,9.06-0.15,13.59c-0.19,5.46-0.63,10.9-1.47,16.3c-0.62,3.98-1.78,7.77-3.71,11.33
				c-2.19,4.05-4.67,7.91-7.26,11.71c-0.26,0.39-0.55,0.76-0.77,1.17c-0.51,0.96-0.38,2.03,0.28,2.79c0.74,0.84,1.68,1.07,2.72,0.75
				c0.5-0.15,0.96-0.46,1.42-0.72c11.65-6.77,20.94-15.91,27.75-27.56c3.03-5.18,5.69-10.54,7.72-16.21
				c1.55-4.34,2.65-8.79,3.05-13.4c0.02-0.25,0.09-0.5,0.13-0.72c0.52-0.12,0.65,0.24,0.79,0.52c0.7,1.39,0.96,2.89,1.1,4.43
				c0.45,5.01-0.01,9.98-0.91,14.9c-0.95,5.19-2.46,10.22-4.73,15c-1.81,3.81-4.09,7.3-6.95,10.43c-1.89,2.06-3.65,4.24-5.39,6.42
				c-0.61,0.77-1.04,1.7-1.44,2.61c-0.36,0.82,0.2,1.51,1.08,1.35c0.84-0.15,1.69-0.39,2.48-0.71c3.9-1.59,7.55-3.65,11.02-6.03
				c6.38-4.38,11.83-9.7,16.26-16.06c3.36-4.81,6.53-9.73,9.13-15c2.49-5.05,4.33-10.31,5.19-15.88c0.26-1.71,0.37-3.44,0.58-5.16
				c0.15-1.25-0.34-2.17-1.3-2.94c-1.45-1.17-2.87-2.38-4.26-3.63c-3.37-3.04-6.58-6.24-9.29-9.88c-1.35-1.81-2.53-3.75-3.75-5.66
				c-0.35-0.55-0.62-1.16-0.61-1.87c0.02-1.12,0.55-1.9,1.53-2.38c0.98-0.48,2.23-0.27,2.94,0.53c0.48,0.54,0.87,1.17,1.28,1.78
				c2.31,3.42,5.2,6.24,8.76,8.32c0.97,0.57,2.04,0.97,3.07,1.42c0.3,0.13,0.64,0.2,0.96,0.25c1.76,0.25,3-0.79,3.04-2.56
				c0.01-0.33-0.02-0.67-0.06-1c-0.81-6.95-1.85-13.86-3.52-20.66c-0.56-2.26-1.19-4.51-1.85-6.74c-1.59-5.41-4.11-10.39-7.25-15.06
				c-0.37-0.55-0.78-1.09-1.09-1.67c-0.65-1.21-0.34-2.6,0.71-3.41c0.97-0.75,2.3-0.73,3.31,0.12c0.51,0.43,0.95,0.93,1.41,1.42
				c3.7,4.01,6.49,8.59,8.63,13.6c2.33,5.47,4,11.15,5.33,16.93c1.68,7.27,2.86,14.63,3.68,22.05c0.18,1.65,0.46,3.3,0.56,4.96
				c0.1,1.72,0.13,3.47,0,5.19c-0.19,2.45-0.55,4.89-0.86,7.34c-0.11,0.92-0.25,1.84-0.04,2.73c0.61,0.32,0.92-0.12,1.26-0.4
				c3.04-2.52,5.69-5.41,8.09-8.54c5.94-7.77,9.7-16.5,11.21-26.16c1.63-10.47,0.57-20.7-2.88-30.71
				c-1.88-5.44-4.43-10.55-7.3-15.52c-0.57-0.98-1.14-1.95-1.67-2.95c-0.27-0.51-0.64-1.03-0.42-1.69c0.3-0.32,0.66-0.16,0.89,0.02
				c0.93,0.75,1.9,1.48,2.71,2.35c4.15,4.5,7.39,9.58,9.61,15.3c1.63,4.22,3.32,8.43,5.5,12.41c0.48,0.87,1.02,1.71,1.6,2.53
				c0.2,0.29,0.57,0.46,0.82,0.65c0.52-0.24,0.45-0.61,0.45-0.92c-0.06-5.74,0.75-11.43,0.99-17.14c0.19-4.46,0.27-8.92,0.27-13.38
				c0-3.66-0.32-7.31-0.77-10.95c-0.59-4.78-1.75-9.42-3.17-14c-2.32-7.45-5.31-14.64-8.28-21.84c-0.71-1.72-1.42-3.45-2.07-5.19
				c-0.19-0.52-0.54-1.07-0.22-1.67c0.52-0.02,0.71,0.36,0.97,0.64c8.3,8.93,13.69,19.43,16.64,31.21c0.63,2.52,1.12,5.07,1.68,7.6
				c0.08,0.38,0.22,0.74,0.41,1.4c0.29-0.58,0.49-0.89,0.61-1.23c2.67-7.42,4.64-15.01,5.6-22.84c0.23-1.85,0.31-3.71,0.47-5.57
				c0.08-1.02-0.16-1.96-0.57-2.9c-1.94-4.47-4.27-8.73-6.8-12.89c-5.03-8.27-10.79-16.01-16.99-23.44
				c-0.47-0.56-0.99-1.08-1.55-1.55c-8.06-6.66-16.24-13.18-24.94-19c-2.49-1.66-5.07-3.19-7.67-4.66
				c-3.21-1.82-6.74-2.82-10.29-3.73c-5.23-1.34-10.53-2.28-15.84-3.22c-2.16-0.38-4.32-0.8-6.47-1.21
				c-0.24-0.05-0.46-0.18-0.68-0.27c0.06-0.59,0.48-0.49,0.75-0.49c2.26,0,4.54-0.09,6.79,0.09c5.51,0.44,10.98,1.19,16.42,2.14
				c3.93,0.68,7.86,1.39,11.79,2.09c0.45,0.08,0.91,0.12,1.34,0.18c0.29-0.53-0.14-0.64-0.35-0.82c-4.28-3.64-9.02-6.6-13.91-9.33
				c-8.84-4.94-17.98-9.27-27.33-13.14c-6.39-2.64-12.86-5.09-19.3-7.62c-0.36-0.14-0.71-0.3-1.1-0.46
				c0.49-0.55,0.98-0.23,1.42-0.15c6.35,1.19,12.55,2.97,18.68,5.01c13.6,4.54,26.72,10.21,39.18,17.32
				c6.43,3.67,12.6,7.73,18.19,12.62c4.42,3.87,8.41,8.15,12.2,12.64c4.17,4.94,8.06,10.1,11.8,15.37c0.38,0.53,0.77,1.05,1.17,1.59
				c0.47-0.32,0.18-0.65,0.11-0.9c-1.01-3.73-2.03-7.45-3.08-11.16c-0.6-2.13-1.65-4.07-2.69-6c-3.07-5.69-6.57-11.12-10.16-16.5
				c-0.54-0.81-1.06-1.64-1.63-2.53c0.62-0.04,0.8,0.35,1.03,0.61c3.85,4.42,7.56,8.96,11.07,13.65c1.92,2.56,3.55,5.32,5.1,8.11
				c3.47,6.23,6.61,12.62,9.69,19.05c0.23,0.47,0.49,0.92,0.84,1.35c-0.04-1.85-0.68-3.56-1.11-5.3c-0.43-1.74-0.98-3.44-1.47-5.15
				c0.39-0.29,0.5,0.04,0.66,0.17c0.15,0.13,0.25,0.31,0.37,0.47c3.99,5.48,7.08,11.42,9.31,17.81c1.9,5.44,2.93,11.04,3.31,16.8
				c0.34,5.06,0.46,10.11,0.2,15.17c-0.18,3.66-0.56,7.3-1.18,10.92c-0.03,0.19-0.03,0.38-0.07,0.84c0.33-0.35,0.52-0.49,0.64-0.69
				c4.01-6.92,7.85-13.92,10.84-21.35c1.58-3.94,2.37-8,2.36-12.27c-0.02-4.89-0.59-9.7-1.49-14.48c-0.08-0.43-0.09-0.87-0.18-1.79
				c0.45,0.66,0.65,0.9,0.79,1.18c2.45,4.9,4.48,9.96,5.6,15.34c0.24,1.17,0.3,2.37,0.46,3.56c0.09,0.65,0.23,1.29,0.34,1.94
				c0,1.47,0,2.93,0,4.4c-0.45,0.42-0.32,1-0.34,1.51c-0.06,1.61-0.37,3.17-0.74,4.73c-1.74,7.36-4.47,14.35-7.81,21.12
				c-2.45,4.97-5.37,9.65-8.9,13.95c-3.85,4.68-7.55,9.48-11.34,14.22c-0.65,0.81-1,1.63-0.99,2.72c0.02,2.93-0.02,5.86-0.15,8.79
				c-0.15,3.46-0.34,6.92-0.66,10.36c-0.51,5.5-1.39,10.96-2.25,16.42c-0.81,5.1-2.16,10.02-4.42,14.67
				c-0.85,1.74-1.72,3.46-2.6,5.18c-0.94,1.84-1.93,3.65-2.86,5.49c-0.35,0.69-0.76,1.39-0.68,2.18c0.53,0.42,0.94,0.14,1.36-0.04
				c2.9-1.26,5.46-3.01,7.76-5.19c3.8-3.59,6.45-7.92,8.45-12.71c1.86-4.44,2.72-9.04,2.55-13.84c-0.1-2.8-0.42-5.58-0.97-8.33
				c-0.5-2.48-1.07-4.94-1.59-7.42c-0.1-0.5-0.33-1.02,0.03-1.51c0.59-0.11,0.84,0.34,1.13,0.67c1.5,1.72,2.67,3.66,3.62,5.72
				c3.33,7.19,4.5,14.71,3.49,22.59c-0.6,4.64-2.11,8.91-4.66,12.84c-2.15,3.31-4.63,6.35-7.38,9.17
				c-7.82,8.02-16.67,14.69-26.45,20.14c-0.58,0.32-1.18,0.62-1.74,0.98c-0.51,0.32-0.98,0.68-1.46,1.05
				c-0.21,0.16-0.4,0.35-0.57,0.56c-0.51,0.63-0.34,1.27,0.41,1.6c1.13,0.51,2.36,0.48,3.54,0.46c5.09-0.1,10.06-0.96,14.87-2.63
				c1.97-0.68,3.78-1.68,5.28-3.15c1.52-1.49,3.05-2.99,4.39-4.63c1.81-2.22,3.44-4.57,5.15-6.87c0.52-0.69,1.01-1.4,1.56-2.08
				c0.19-0.23,0.49-0.37,0.95-0.71c-0.08,0.72-0.09,1.18-0.19,1.61c-1.4,5.71-3.86,10.9-7.47,15.54c-3.71,4.79-8.55,7.7-14.5,8.81
				c-3.21,0.6-6.46,0.9-9.71,1.17c-2.92,0.24-5.84,0.46-8.74,0.84c-4.16,0.56-8,1.98-11.32,4.63c-0.88,0.71-1.8,1.38-2.67,2.1
				c-3.07,2.56-6.11,5.15-9.19,7.69c-8.33,6.88-17.46,12.4-27.6,16.2c-7.1,2.66-14.08,5.63-21.03,8.67
				c-7.5,3.28-14.88,6.82-22.61,9.55c-0.49,0.17-0.99,0.46-1.34,0.83c-2,2.05-3.91,4.18-5.37,6.67c-0.58,0.99-1,2.05-1.14,3.18
				c-0.23,1.85,0.68,2.7,2.55,2.68c0.26,0,0.52-0.1,0.78-0.15c1.8-0.3,3.46-0.98,5.05-1.82c2.59-1.37,5.12-2.84,7.68-4.27
				c5.52-3.09,11.01-6.22,16.55-9.26c2.92-1.6,5.93-3.04,9.17-3.88c6.15-1.6,12.42-2.28,18.76-2.53c0.2-0.01,0.4,0,0.6-0.01
				c1.09-0.05,2.4,1.19,2.34,2.29c-0.03,0.6,0,1.2-0.04,1.8c-0.18,2.54-0.79,5-1.55,7.41c-2.07,6.55-5.36,12.46-9.55,17.88
				c-2.38,3.07-5.07,5.83-8.25,8.09c-4.8,3.41-10.14,4.94-16.01,4.44c-1.92-0.16-3.82-0.52-5.71-0.89c-2.55-0.49-5.07-1.12-7.61-1.6
				c-2.58-0.49-5.41,0.57-6.92,3.29c-0.78,1.41-1.29,2.92-1.61,4.49c-0.54,2.62-0.76,5.27-0.81,7.94
				c-0.12,6.15,0.32,12.24,1.47,18.29c1.25,6.56,3.23,12.91,5.55,19.16c3.18,8.56,6.93,16.87,10.8,25.13
				c2.43,5.19,5.01,10.3,8.09,15.14c4.46,7.01,10.23,12.57,17.71,16.3c2.74,1.37,5.56,2.55,8.44,3.6
				c7.43,2.71,15.18,3.95,22.99,4.81c5.36,0.59,10.72,1.11,16.04,2.06c6.98,1.24,13.69,3.32,20.1,6.39c4.18,2,7.91,4.64,11.2,7.91
				c4.63,4.62,8.15,10,10.99,15.85c2.77,5.71,4.88,11.67,6.23,17.87c0.26,1.18,0.8,2.05,1.85,2.69c1.49,0.9,2.78,2.06,3.96,3.34
				c2.61,2.87,4.06,6.18,4.04,10.13c-0.02,4.08-0.62,8.09-1.28,12.1c-0.04,0.26-0.14,0.51-0.21,0.77c-0.28,0.98-0.93,1.6-1.9,1.87
				c-0.42,0.12-0.86,0.21-1.23,0.3c-0.06,0.27-0.1,0.4-0.11,0.53c-0.11,4.59-0.23,9.19-0.33,13.78c-0.14,6.46-0.27,12.92-0.4,19.37
				c-0.13,6.52-0.28,13.05-0.4,19.57c-0.1,5.59-0.16,11.19-0.25,16.78c-0.03,2.14-0.26,4.23-0.96,6.28
				c-1.23,3.59-2.31,7.23-3.58,10.8c-3.68,10.36-7.98,20.46-12.56,30.46c-0.5,1.1-0.9,2.21-1.09,3.4
				c-1.72,10.92-3.39,21.84-5.2,32.75c-1.72,10.38-3.59,20.73-5.39,31.1c-1.43,8.2-2.89,16.39-4.3,24.59
				c-0.27,1.54-0.65,2.98-1.95,3.99c-0.67,0-1.33,0-2,0c-0.68-0.75-1.68-0.74-2.53-1.09c-1.45-0.59-1.98-1.32-1.93-2.89
				c0.03-0.86,0.1-1.73,0.19-2.59c0.47-4.84,0.95-9.67,1.41-14.51c0.47-4.97,0.89-9.95,1.36-14.92c0.6-6.3,1.23-12.59,1.83-18.89
				c0.59-6.23,1.17-12.46,1.75-18.69c0.79-8.49,1.57-16.97,2.38-25.46c0.14-1.52,0.35-3.04,0.58-4.56
				c0.58-3.89,1.22-7.76,1.77-11.65c0.77-5.54,1.55-11.08,2.19-16.63c0.41-3.57,0.63-7.16,0.86-10.75c0.14-2.19,0.11-4.39,0.23-6.59
				c0.14-2.53,0.28-5.05,0.56-7.57c0.21-1.95-1.19-3.45-3.07-3.23c-1.12,0.13-2.26,0.04-3.39,0.05c-0.6,0-1.19,0.05-1.72,0.41
				c-1.21,0.82-2.43,1.62-3.57,2.37c-0.29,3.34-0.55,6.52-0.86,9.7c-0.47,4.78-1.29,9.5-2.6,14.13c-1.58,5.57-2.92,11.21-4.09,16.88
				c-0.62,3-1.18,6.01-1.31,9.08c-0.15,3.59-0.36,7.18-0.55,10.77c-0.14,2.59-0.27,5.19-0.42,7.78c-0.34,5.91-0.7,11.83-1.03,17.74
				c-0.2,3.52-0.36,7.05-0.56,10.57c-0.34,6.05-0.7,12.09-1.05,18.14c-0.19,3.39-0.36,6.78-0.55,10.17
				c-0.36,6.51-0.73,13.03-1.11,19.54c-0.11,1.99-0.21,3.99-0.37,5.98c-0.14,1.77-1.07,2.62-2.84,2.68c-0.73,0.02-1.47,0.02-2.2,0
				c-1.77-0.06-2.68-0.88-2.9-2.65c-0.1-0.79-0.13-1.59-0.21-2.39c-0.49-5.04-0.98-10.07-1.47-15.11c-0.31-3.25-0.62-6.5-0.94-9.74
				c-0.47-4.84-0.95-9.67-1.42-14.51c-0.33-3.38-0.63-6.76-0.96-10.14c-0.46-4.77-0.95-9.54-1.41-14.31
				c-0.46-4.77-0.89-9.55-1.35-14.32c-0.46-4.77-0.97-9.54-1.43-14.31c-0.47-4.9-0.91-9.81-1.37-14.72
				c-0.5-5.24-1.01-10.47-1.52-15.71c-0.11-1.13-0.21-2.26-0.38-3.37c-0.2-1.29-0.58-1.56-1.88-1.49c-0.66,0.03-1.33,0.11-1.99,0.15
				c-2.72,0.2-5.44,0.49-8.16,0.57c-4.26,0.13-8.52,0.18-12.78,0.14c-4.06-0.04-8.12-0.18-12.09-1.21c-1.09-0.28-1.83,0.08-2.2,1.13
				c-0.24,0.68-0.32,1.43-0.39,2.15c-0.22,2.19-0.4,4.38-0.61,6.56c-0.48,4.9-0.97,9.81-1.44,14.71c-0.32,3.31-0.62,6.63-0.93,9.94
				c-0.48,5.04-0.98,10.07-1.47,15.11c-0.31,3.18-0.6,6.36-0.91,9.55c-0.49,5.1-1,10.2-1.5,15.31c-0.31,3.18-0.6,6.36-0.91,9.55
				c-0.47,4.84-0.96,9.67-1.43,14.51c-0.46,4.77-0.9,9.55-1.36,14.32c-0.49,5.1-0.99,10.21-1.49,15.31
				c-0.09,0.93-0.16,1.86-0.32,2.78c-0.23,1.33-1.11,2.1-2.46,2.19c-0.8,0.05-1.6,0.03-2.4,0.01c-1.85-0.04-2.69-0.76-2.99-2.54
				c-0.04-0.26-0.06-0.53-0.07-0.79c-0.17-3.06-0.33-6.12-0.49-9.17c-0.19-3.59-0.36-7.18-0.56-10.77
				c-0.34-6.05-0.7-12.09-1.05-18.14c-0.19-3.39-0.35-6.78-0.55-10.17c-0.35-6.11-0.72-12.23-1.07-18.34
				c-0.19-3.32-0.35-6.65-0.53-9.97c-0.37-6.58-0.74-13.16-1.11-19.74c-0.12-2.19-0.26-4.39-0.4-6.58c-0.03-0.4-0.08-0.8-0.15-1.19
				c-1.24-6.81-2.69-13.59-4.6-20.24c-2.18-7.6-3.29-15.35-3.65-23.22c-0.03-0.73-0.1-1.45-0.15-2.21
				c-1.47-1.09-3.14-1.76-4.69-2.66c-0.17-0.1-0.38-0.15-0.57-0.15c-1.46-0.02-2.93-0.09-4.39-0.02c-1.17,0.06-2.09,1.06-2.14,2.24
				c-0.04,0.79,0.04,1.6,0.09,2.39c0.11,1.66,0.26,3.32,0.34,4.98c0.15,3.26,0.18,6.52,0.42,9.78c0.29,3.92,0.67,7.83,1.13,11.73
				c0.56,4.69,1.27,9.37,1.86,14.06c0.7,5.48,1.88,10.89,2.32,16.41c0.41,5.18,0.96,10.34,1.44,15.51
				c0.32,3.38,0.62,6.76,0.95,10.14c0.48,5.04,0.99,10.07,1.47,15.11c0.31,3.25,0.6,6.5,0.91,9.75c0.47,4.97,0.96,9.94,1.43,14.91
				c0.33,3.51,0.63,7.03,0.96,10.54c0.46,4.84,0.94,9.67,1.41,14.51c0.11,1.13,0.21,2.25,0.32,3.38c0.19,2.03-0.4,2.9-2.37,3.57
				c-0.44,0.15-0.9,0.25-1.32,0.44c-0.22,0.1-0.38,0.33-0.57,0.5c-0.8,0-1.6,0-2.4,0c-0.13-0.22-0.22-0.49-0.41-0.65
				c-0.71-0.6-1-1.38-1.15-2.26c-0.66-3.87-1.34-7.74-2.02-11.61c-1.42-8.06-2.86-16.13-4.26-24.19
				c-1.42-8.13-2.84-16.26-4.19-24.41c-1.47-8.87-2.91-17.74-4.22-26.63c-0.42-2.87-1.22-5.54-2.43-8.17
				c-4.27-9.33-8.16-18.81-11.68-28.45c-3.24-8.9-5.66-18.03-7.62-27.29c-1.48-6.97-2.73-13.98-3.86-21.02
				c-0.24-1.51-0.45-3.03-0.62-4.55c-0.13-1.16-0.61-1.97-1.71-2.47c-0.84-0.38-1.63-0.9-2.41-1.41c-0.49-0.33-0.94-0.74-1.37-1.16
				c-1.27-1.25-1.57-2.73-0.95-4.39c0.12-0.31,0.25-0.61,0.39-0.93c-0.12-0.26-0.22-0.51-0.35-0.73
				c-6.45-11.27-10.64-23.35-12.97-36.1c-0.72-3.93-1.04-7.93-0.88-11.94c0.17-4.42,1.06-8.72,2.43-12.91
				c0.91-2.78,1.85-5.56,2.78-8.34c1.96-5.87,2.73-11.92,2.79-18.08c0.06-5.6-0.08-11.19-0.53-16.77
				c-0.5-6.17-1.13-12.33-1.81-18.48c-0.56-5.03-1.35-10.03-1.93-15.06c-0.32-2.77-0.5-5.57-0.57-8.37
				c-0.08-3.39-0.06-6.79,0.06-10.19c0.17-4.86,0.7-9.69,1.37-14.51c0.84-6.08,2.33-12.02,3.53-18.03
				c0.81-4.05,1.45-8.13,1.69-12.26c0.35-5.96-0.63-11.68-3.52-16.99c-1.98-3.64-4.76-6.41-8.69-7.86
				c-3.18-1.18-6.38-1.21-9.55,0.07c-2.53,1.02-5.11,1.92-7.78,2.48c-6.2,1.3-12.16,0.72-17.87-2.16c-2.23-1.13-4.15-2.63-5.83-4.46
				c-2.64-2.87-4.67-6.15-6.39-9.63c-3.26-6.59-5.64-13.5-7.1-20.72c-0.09-0.45-0.18-0.92-0.19-1.38c-0.01-1.09,0.57-1.78,1.64-1.89
				c1.33-0.13,2.67-0.1,3.97,0.26c3.78,1.04,7.55,2.12,11.33,3.18c3.59,1.01,7.18,1.97,10.76,3.02c1.98,0.58,3.95,1.2,5.86,1.96
				c4.54,1.79,8.39,4.59,11.55,8.32c1.46,1.73,2.87,3.5,4.34,5.22c1.83,2.14,3.93,3.99,6.38,5.38c0.8,0.46,1.67,0.86,2.56,1.07
				c1.81,0.43,3.01-0.32,3.41-2.14c0.4-1.79,0.36-3.59-0.53-5.26c-0.41-0.76-0.85-1.51-1.37-2.21c-3.1-4.16-6.96-7.5-11.17-10.48
				c-0.32-0.23-0.69-0.41-1.05-0.57c-8.11-3.53-16.21-7.1-24.35-10.57c-4.34-1.85-8.73-3.6-13.15-5.27
				c-10.19-3.86-19.37-9.42-27.74-16.35c-3.03-2.5-6.02-5.05-9.04-7.57c-0.87-0.72-1.79-1.39-2.67-2.1
				c-3.32-2.66-7.16-4.07-11.32-4.62c-2.97-0.39-5.96-0.59-8.94-0.85c-4.04-0.35-8.08-0.71-12.02-1.79
				c-4.31-1.19-7.89-3.51-10.81-6.83c-4.35-4.95-7.09-10.75-8.67-17.12c-0.09-0.35-0.01-0.74-0.01-1.13
				c0.74,0.03,0.96,0.58,1.26,0.99c1.19,1.61,2.33,3.25,3.5,4.86c1.81,2.48,3.72,4.86,5.9,7.04c2.26,2.26,4.88,3.88,7.95,4.78
				c4.3,1.25,8.68,2.04,13.16,2.16c0.93,0.02,1.86-0.07,2.79-0.17c0.39-0.04,0.77-0.19,1.14-0.35c0.67-0.3,0.86-0.92,0.41-1.46
				c-0.34-0.4-0.73-0.79-1.16-1.08c-0.83-0.56-1.69-1.07-2.56-1.55c-9.72-5.4-18.53-12.02-26.33-19.96
				c-2.43-2.47-4.62-5.15-6.65-7.97c-3.78-5.24-5.64-11.11-5.92-17.53c-0.32-7.28,1.08-14.18,4.49-20.63
				c0.8-1.52,1.87-2.91,2.85-4.33c0.25-0.35,0.66-0.59,0.97-0.86c0.58,0.31,0.44,0.74,0.37,1.1c-0.28,1.37-0.61,2.73-0.91,4.09
				c-0.99,4.49-1.78,9.02-1.76,13.64c0.02,3.35,0.52,6.63,1.62,9.81c1.67,4.83,3.97,9.3,7.38,13.16c2.72,3.09,5.89,5.58,9.68,7.24
				c0.47,0.21,0.94,0.56,1.5,0.1c0.04-0.82-0.38-1.52-0.73-2.22c-1-1.96-2.04-3.89-3.05-5.84c-1.69-3.25-3.28-6.54-4.55-9.99
				c-1.14-3.08-1.69-6.3-2.25-9.51c-0.96-5.51-1.77-11.05-2.28-16.62c-0.32-3.51-0.49-7.04-0.65-10.57
				c-0.12-2.46-0.15-4.92-0.16-7.39c0-0.85-0.28-1.51-0.81-2.17c-4.41-5.51-8.77-11.07-13.19-16.57c-2.64-3.28-4.92-6.79-6.89-10.51
				c-3.87-7.33-6.99-14.95-8.98-23.01c-0.45-1.81-0.69-3.66-1.08-5.48c-0.19-0.9-0.5-1.77-0.76-2.66c0-0.67,0-1.33,0-2
				c0.71-1.74,0.79-3.61,1.13-5.42c1.13-6.08,3.38-11.75,6.19-17.22c0.09-0.17,0.24-0.32,0.61-0.81c-0.35,2.08-0.65,3.73-0.9,5.4
				c-0.62,4.08-1.05,8.18-0.94,12.33c0.11,3.84,0.94,7.51,2.37,11.07c2.19,5.45,4.87,10.65,7.68,15.8c0.86,1.58,1.76,3.14,2.66,4.69
				c0.26,0.45,0.57,0.87,0.87,1.33c0.46-0.27,0.25-0.61,0.2-0.87c-0.7-3.87-1.07-7.78-1.2-11.71c-0.06-2-0.21-3.99-0.14-5.99
				c0.15-4.66,0.29-9.31,0.97-13.93c0.92-6.24,2.83-12.17,5.53-17.86c1.72-3.62,3.7-7.08,6.05-10.33c0.38-0.53,0.8-1.03,1.41-1.82
				c0.03,1.25-0.44,2.05-0.63,2.9c-0.2,0.91-0.5,1.79-0.75,2.69c-0.25,0.9-0.5,1.8-0.73,2.7c-0.23,0.9-0.46,1.81-0.66,2.72
				c-0.21,0.9-0.39,1.8-0.36,2.81c0.19-0.27,0.43-0.51,0.57-0.81c1.49-3.05,2.96-6.11,4.43-9.17c2.46-5.1,5.07-10.12,7.87-15.03
				c1.55-2.72,3.25-5.35,5.22-7.79c3.01-3.73,6.03-7.45,9.07-11.16c0.4-0.49,0.67-1.17,1.44-1.25L73.84,39.82z"/>
			<path class="st0" d="M357.97,758.35c1.3-1.01,1.69-2.45,1.95-3.99c1.41-8.2,2.87-16.39,4.3-24.59
				c1.81-10.36,3.67-20.72,5.39-31.1c1.81-10.9,3.48-21.83,5.2-32.75c0.19-1.2,0.59-2.31,1.09-3.4c4.57-9.99,8.87-20.1,12.56-30.46
				c1.27-3.57,2.35-7.21,3.58-10.8c0.7-2.05,0.93-4.14,0.96-6.28c0.08-5.59,0.15-11.19,0.25-16.78c0.12-6.52,0.26-13.05,0.4-19.57
				c0.13-6.46,0.26-12.92,0.4-19.37c0.1-4.59,0.22-9.19,0.33-13.78c0-0.13,0.05-0.26,0.11-0.53c0.37-0.09,0.8-0.18,1.23-0.3
				c0.97-0.28,1.62-0.89,1.9-1.87c0.07-0.26,0.17-0.51,0.21-0.77c0.67-4.01,1.26-8.02,1.28-12.1c0.02-3.95-1.42-7.26-4.04-10.13
				c-1.17-1.29-2.47-2.44-3.96-3.34c-1.05-0.64-1.6-1.51-1.85-2.69c-1.35-6.21-3.46-12.16-6.23-17.87
				c-2.84-5.85-6.36-11.23-10.99-15.85c-3.29-3.28-7.02-5.91-11.2-7.91c-6.4-3.07-13.12-5.15-20.1-6.39
				c-5.31-0.94-10.68-1.47-16.04-2.06c-7.82-0.86-15.56-2.1-22.99-4.81c-2.88-1.05-5.7-2.23-8.44-3.6
				c-7.47-3.73-13.25-9.29-17.71-16.3c-3.08-4.84-5.65-9.96-8.09-15.14c-3.87-8.26-7.62-16.58-10.8-25.13
				c-2.32-6.25-4.3-12.6-5.55-19.16c-1.15-6.04-1.59-12.14-1.47-18.29c0.05-2.67,0.27-5.32,0.81-7.94c0.32-1.57,0.83-3.08,1.61-4.49
				c1.5-2.72,4.34-3.77,6.92-3.29c2.55,0.48,5.07,1.11,7.61,1.6c1.89,0.36,3.8,0.72,5.71,0.89c5.87,0.5,11.21-1.03,16.01-4.44
				c3.17-2.26,5.87-5.02,8.25-8.09c4.19-5.41,7.48-11.32,9.55-17.88c0.76-2.42,1.37-4.87,1.55-7.41c0.04-0.6,0-1.2,0.04-1.8
				c0.06-1.1-1.25-2.35-2.34-2.29c-0.2,0.01-0.4,0-0.6,0.01c-6.33,0.25-12.61,0.93-18.76,2.53c-3.24,0.84-6.25,2.28-9.17,3.88
				c-5.55,3.04-11.04,6.17-16.55,9.26c-2.55,1.43-5.09,2.9-7.68,4.27c-1.59,0.84-3.26,1.52-5.05,1.82
				c-0.26,0.04-0.52,0.14-0.78,0.15c-1.87,0.02-2.78-0.83-2.55-2.68c0.14-1.13,0.56-2.19,1.14-3.18c1.46-2.49,3.38-4.62,5.37-6.67
				c0.36-0.37,0.86-0.66,1.34-0.83c7.73-2.73,15.11-6.27,22.61-9.55c6.95-3.04,13.93-6.01,21.03-8.67
				c10.14-3.8,19.27-9.32,27.6-16.2c3.08-2.54,6.12-5.14,9.19-7.69c0.87-0.72,1.78-1.39,2.67-2.1c3.32-2.66,7.16-4.07,11.32-4.63
				c2.9-0.39,5.82-0.6,8.74-0.84c3.25-0.27,6.49-0.57,9.71-1.17c5.96-1.12,10.79-4.02,14.5-8.81c3.6-4.65,6.07-9.84,7.47-15.54
				c0.11-0.43,0.11-0.89,0.19-1.61c-0.46,0.34-0.76,0.48-0.95,0.71c-0.54,0.67-1.04,1.38-1.56,2.08c-1.71,2.3-3.34,4.66-5.15,6.87
				c-1.34,1.64-2.87,3.14-4.39,4.63c-1.5,1.46-3.31,2.46-5.28,3.15c-4.82,1.67-9.79,2.53-14.87,2.63c-1.18,0.02-2.41,0.05-3.54-0.46
				c-0.75-0.33-0.92-0.97-0.41-1.6c0.16-0.21,0.36-0.4,0.57-0.56c0.47-0.36,0.95-0.73,1.46-1.05c0.56-0.35,1.16-0.65,1.74-0.98
				c9.78-5.45,18.63-12.12,26.45-20.14c2.75-2.82,5.23-5.86,7.38-9.17c2.55-3.92,4.06-8.19,4.66-12.84
				c1.01-7.88-0.16-15.4-3.49-22.59c-0.95-2.06-2.13-4-3.62-5.72c-0.29-0.33-0.54-0.79-1.13-0.67c-0.36,0.5-0.14,1.01-0.03,1.51
				c0.52,2.47,1.09,4.94,1.59,7.42c0.55,2.75,0.87,5.53,0.97,8.33c0.17,4.8-0.7,9.4-2.55,13.84c-2,4.79-4.65,9.12-8.45,12.71
				c-2.3,2.17-4.86,3.93-7.76,5.19c-0.42,0.18-0.83,0.47-1.36,0.04c-0.08-0.79,0.33-1.49,0.68-2.18c0.93-1.84,1.92-3.66,2.86-5.49
				c0.88-1.72,1.76-3.44,2.6-5.18c2.26-4.65,3.61-9.56,4.42-14.67c0.86-5.46,1.74-10.92,2.25-16.42c0.32-3.45,0.51-6.91,0.66-10.36
				c0.13-2.93,0.17-5.86,0.15-8.79c-0.01-1.08,0.34-1.91,0.99-2.72c3.79-4.73,7.49-9.53,11.34-14.22c3.53-4.3,6.45-8.97,8.9-13.95
				c3.34-6.77,6.07-13.76,7.81-21.12c0.37-1.56,0.68-3.12,0.74-4.73c0.02-0.51-0.11-1.08,0.34-1.51c0,216.18,0,432.36,0,648.54
				C393.4,758.35,375.69,758.35,357.97,758.35z"/>
			<path class="st0" d="M244.89,758.35c0.19-0.17,0.35-0.4,0.57-0.5c0.42-0.19,0.88-0.29,1.32-0.44c1.98-0.66,2.56-1.54,2.37-3.57
				c-0.1-1.13-0.21-2.25-0.32-3.38c-0.47-4.84-0.95-9.67-1.41-14.51c-0.33-3.51-0.63-7.03-0.96-10.54
				c-0.47-4.97-0.96-9.94-1.43-14.91c-0.31-3.25-0.6-6.5-0.91-9.75c-0.48-5.04-0.99-10.07-1.47-15.11
				c-0.32-3.38-0.63-6.76-0.95-10.14c-0.49-5.17-1.04-10.34-1.44-15.51c-0.43-5.52-1.62-10.93-2.32-16.41
				c-0.6-4.69-1.31-9.36-1.86-14.06c-0.46-3.9-0.84-7.81-1.13-11.73c-0.24-3.25-0.26-6.52-0.42-9.78c-0.08-1.66-0.23-3.32-0.34-4.98
				c-0.05-0.8-0.13-1.6-0.09-2.39c0.06-1.19,0.98-2.18,2.14-2.24c1.46-0.07,2.93,0,4.39,0.02c0.19,0,0.41,0.06,0.57,0.15
				c1.54,0.9,3.22,1.57,4.69,2.66c0.05,0.76,0.12,1.49,0.15,2.21c0.37,7.88,1.47,15.63,3.65,23.22c1.91,6.66,3.36,13.43,4.6,20.24
				c0.07,0.39,0.13,0.79,0.15,1.19c0.14,2.19,0.27,4.38,0.4,6.58c0.37,6.58,0.75,13.16,1.11,19.74c0.18,3.32,0.34,6.65,0.53,9.97
				c0.35,6.11,0.72,12.23,1.07,18.34c0.19,3.39,0.35,6.78,0.55,10.17c0.34,6.05,0.71,12.09,1.05,18.14
				c0.2,3.59,0.38,7.18,0.56,10.77c0.16,3.06,0.33,6.12,0.49,9.17c0.01,0.27,0.03,0.53,0.07,0.79c0.3,1.78,1.14,2.5,2.99,2.54
				c0.8,0.02,1.6,0.04,2.4-0.01c1.35-0.09,2.22-0.86,2.46-2.19c0.16-0.92,0.23-1.85,0.32-2.78c0.5-5.1,1-10.2,1.49-15.31
				c0.46-4.77,0.9-9.55,1.36-14.32c0.47-4.84,0.96-9.67,1.43-14.51c0.31-3.18,0.6-6.36,0.91-9.55c0.49-5.1,1-10.2,1.5-15.31
				c0.31-3.18,0.6-6.36,0.91-9.55c0.49-5.04,0.99-10.07,1.47-15.11c0.32-3.31,0.61-6.63,0.93-9.94c0.47-4.9,0.97-9.81,1.44-14.71
				c0.21-2.19,0.39-4.38,0.61-6.56c0.07-0.72,0.15-1.47,0.39-2.15c0.37-1.05,1.11-1.41,2.2-1.13c3.97,1.03,8.03,1.17,12.09,1.21
				c4.26,0.04,8.52-0.02,12.78-0.14c2.72-0.08,5.44-0.37,8.16-0.57c0.66-0.05,1.33-0.12,1.99-0.15c1.3-0.07,1.68,0.2,1.88,1.49
				c0.18,1.12,0.27,2.25,0.38,3.37c0.51,5.23,1.02,10.47,1.52,15.71c0.47,4.91,0.9,9.81,1.37,14.72c0.46,4.77,0.97,9.54,1.43,14.31
				c0.46,4.77,0.89,9.55,1.35,14.32c0.46,4.77,0.95,9.54,1.41,14.31c0.33,3.38,0.63,6.76,0.96,10.14c0.47,4.84,0.95,9.67,1.42,14.51
				c0.32,3.25,0.62,6.5,0.94,9.74c0.49,5.04,0.98,10.07,1.47,15.11c0.08,0.8,0.11,1.6,0.21,2.39c0.22,1.77,1.13,2.59,2.9,2.65
				c0.73,0.02,1.47,0.02,2.2,0c1.77-0.06,2.7-0.91,2.84-2.68c0.16-1.99,0.26-3.99,0.37-5.98c0.37-6.51,0.74-13.03,1.11-19.54
				c0.19-3.39,0.36-6.78,0.55-10.17c0.34-6.05,0.7-12.09,1.05-18.14c0.2-3.52,0.36-7.05,0.56-10.57c0.34-5.91,0.69-11.83,1.03-17.74
				c0.15-2.59,0.28-5.18,0.42-7.78c0.19-3.59,0.4-7.18,0.55-10.77c0.13-3.08,0.69-6.08,1.31-9.08c1.17-5.67,2.51-11.3,4.09-16.88
				c1.31-4.62,2.13-9.35,2.6-14.13c0.31-3.18,0.57-6.36,0.86-9.7c1.13-0.75,2.36-1.55,3.57-2.37c0.53-0.36,1.11-0.41,1.72-0.41
				c1.13-0.01,2.28,0.09,3.39-0.05c1.88-0.22,3.28,1.28,3.07,3.23c-0.27,2.51-0.42,5.04-0.56,7.57c-0.12,2.19-0.09,4.4-0.23,6.59
				c-0.23,3.59-0.45,7.18-0.86,10.75c-0.64,5.55-1.42,11.09-2.19,16.63c-0.54,3.89-1.19,7.77-1.77,11.65
				c-0.23,1.51-0.43,3.03-0.58,4.56c-0.81,8.48-1.59,16.97-2.38,25.46c-0.58,6.23-1.16,12.46-1.75,18.69
				c-0.6,6.3-1.23,12.59-1.83,18.89c-0.47,4.97-0.89,9.95-1.36,14.92c-0.45,4.84-0.94,9.67-1.41,14.51
				c-0.08,0.86-0.16,1.73-0.19,2.59c-0.05,1.57,0.48,2.29,1.93,2.89c0.85,0.35,1.85,0.34,2.53,1.09
				C318.95,758.35,281.92,758.35,244.89,758.35z"/>
			<path d="M73.89,39.86c0.11-0.26,0.22-0.52,0.47-1.1c0.04,0.77-0.05,1.05-0.51,1.06C73.84,39.82,73.89,39.86,73.89,39.86z"/>
		</g>
	</g>
</g>
</svg>
