<?xml version="1.0" encoding="utf-8"?>
<!-- Generator: Adobe Illustrator 24.2.1, SVG Export Plug-In . SVG Version: 6.00 Build 0)  -->
<svg version="1.1" id="Layer_1" xmlns="http://www.w3.org/2000/svg" xmlns:xlink="http://www.w3.org/1999/xlink" x="0px" y="0px"
	 viewBox="0 0 432 769" style="enable-background:new 0 0 432 769;" xml:space="preserve">
<style type="text/css">
	.st0{fill:#FFFFFF;}
</style>
<g id="Layer_2_1_">
	<g id="Layer_1-2">
		<g>
			<path class="st0" d="M242.5,758.3c-75.5,0-151.1,0-226.6,0c0-216.6,0-433.2,0-649.7c0.3,0.9,0.6,1.8,0.8,2.7
				c0.4,1.8,0.6,3.7,1.1,5.5c2,8.1,5.1,15.7,9,23c2,3.7,4.3,7.2,6.9,10.5c4.4,5.5,8.8,11.1,13.2,16.6c0.5,0.7,0.8,1.3,0.8,2.2
				c0,2.5,0,4.9,0.2,7.4c0.2,3.5,0.3,7.1,0.7,10.6c0.5,5.6,1.3,11.1,2.3,16.6c0.6,3.2,1.1,6.4,2.3,9.5c1.3,3.4,2.9,6.7,4.5,10
				c1,1.9,2,3.9,3,5.8c0.3,0.7,0.8,1.4,0.7,2.2c-0.6,0.5-1,0.1-1.5-0.1c-3.8-1.7-7-4.1-9.7-7.2c-3.4-3.9-5.7-8.3-7.4-13.2
				c-1.1-3.2-1.6-6.5-1.6-9.8c0-4.6,0.8-9.1,1.8-13.6c0.3-1.4,0.6-2.7,0.9-4.1c0.1-0.4,0.2-0.8-0.4-1.1c-0.3,0.3-0.7,0.5-1,0.9
				c-1,1.4-2,2.8-2.8,4.3c-3.4,6.4-4.8,13.4-4.5,20.6c0.3,6.4,2.1,12.3,5.9,17.5c2,2.8,4.2,5.5,6.7,8c7.8,7.9,16.6,14.6,26.3,20
				c0.9,0.5,1.7,1,2.6,1.6c0.4,0.3,0.8,0.7,1.2,1.1c0.4,0.5,0.3,1.2-0.4,1.5c-0.4,0.2-0.8,0.3-1.1,0.4c-0.9,0.1-1.9,0.2-2.8,0.2
				c-4.5-0.1-8.9-0.9-13.2-2.2c-3.1-0.9-5.7-2.5-8-4.8c-2.2-2.2-4.1-4.6-5.9-7c-1.2-1.6-2.3-3.3-3.5-4.9c-0.3-0.4-0.5-1-1.3-1
				c0,0.4-0.1,0.8,0,1.1c1.6,6.4,4.3,12.2,8.7,17.1c2.9,3.3,6.5,5.6,10.8,6.8c3.9,1.1,8,1.4,12,1.8c3,0.3,6,0.5,8.9,0.9
				c4.2,0.5,8,2,11.3,4.6c0.9,0.7,1.8,1.4,2.7,2.1c3,2.5,6,5.1,9,7.6c8.4,6.9,17.6,12.5,27.7,16.4c4.4,1.7,8.8,3.4,13.1,5.3
				c8.1,3.5,16.2,7,24.4,10.6c0.4,0.2,0.7,0.3,1.1,0.6c4.2,3,8.1,6.3,11.2,10.5c0.5,0.7,1,1.4,1.4,2.2c0.9,1.7,0.9,3.5,0.5,5.3
				c-0.4,1.8-1.6,2.6-3.4,2.1c-0.9-0.2-1.8-0.6-2.6-1.1c-2.4-1.4-4.6-3.2-6.4-5.4c-1.5-1.7-2.9-3.5-4.3-5.2c-3.2-3.7-7-6.5-11.6-8.3
				c-1.9-0.8-3.9-1.4-5.9-2c-3.6-1-7.2-2-10.8-3c-3.8-1.1-7.6-2.1-11.3-3.2c-1.3-0.4-2.6-0.4-4-0.3c-1.1,0.1-1.7,0.8-1.6,1.9
				c0,0.5,0.1,0.9,0.2,1.4c1.5,7.2,3.8,14.1,7.1,20.7c1.7,3.5,3.8,6.8,6.4,9.6c1.7,1.8,3.6,3.3,5.8,4.5c5.7,2.9,11.7,3.5,17.9,2.2
				c2.7-0.6,5.3-1.5,7.8-2.5c3.2-1.3,6.4-1.3,9.6-0.1c3.9,1.5,6.7,4.2,8.7,7.9c2.9,5.3,3.9,11,3.5,17c-0.2,4.1-0.9,8.2-1.7,12.3
				c-1.2,6-2.7,12-3.5,18c-0.7,4.8-1.2,9.6-1.4,14.5c-0.1,3.4-0.1,6.8-0.1,10.2c0.1,2.8,0.3,5.6,0.6,8.4c0.6,5,1.4,10,1.9,15.1
				c0.7,6.1,1.3,12.3,1.8,18.5c0.5,5.6,0.6,11.2,0.5,16.8c-0.1,6.2-0.8,12.2-2.8,18.1c-0.9,2.8-1.9,5.5-2.8,8.3
				c-1.4,4.2-2.3,8.5-2.4,12.9c-0.2,4,0.2,8,0.9,11.9c2.3,12.7,6.5,24.8,13,36.1c0.1,0.2,0.2,0.5,0.4,0.7c-0.1,0.3-0.3,0.6-0.4,0.9
				c-0.6,1.7-0.3,3.1,0.9,4.4c0.4,0.4,0.9,0.8,1.4,1.2c0.8,0.5,1.6,1,2.4,1.4c1.1,0.5,1.6,1.3,1.7,2.5c0.2,1.5,0.4,3,0.6,4.5
				c1.1,7,2.4,14,3.9,21c2,9.3,4.4,18.4,7.6,27.3c3.5,9.6,7.4,19.1,11.7,28.5c1.2,2.6,2,5.3,2.4,8.2c1.3,8.9,2.8,17.8,4.2,26.6
				c1.4,8.1,2.8,16.3,4.2,24.4c1.4,8.1,2.8,16.1,4.3,24.2c0.7,3.9,1.4,7.7,2,11.6c0.1,0.9,0.4,1.7,1.1,2.3
				C242.3,757.9,242.4,758.1,242.5,758.3z"/>
			<path class="st0" d="M15.9,106.6c0-31.7,0-63.4,0-95.2c131.7,0,263.5,0,395.2,0c0,31.3,0,62.6,0,94c-0.1-0.7-0.3-1.3-0.3-1.9
				c-0.2-1.2-0.2-2.4-0.5-3.6c-1.1-5.4-3.1-10.4-5.6-15.3c-0.1-0.3-0.4-0.5-0.8-1.2c0.1,0.9,0.1,1.4,0.2,1.8
				c0.9,4.8,1.5,9.6,1.5,14.5c0,4.3-0.8,8.3-2.4,12.3c-3,7.4-6.8,14.4-10.8,21.4c-0.1,0.2-0.3,0.3-0.6,0.7c0-0.5,0-0.7,0.1-0.8
				c0.6-3.6,1-7.3,1.2-10.9c0.3-5.1,0.1-10.1-0.2-15.2c-0.4-5.8-1.4-11.4-3.3-16.8c-2.2-6.4-5.3-12.3-9.3-17.8
				c-0.1-0.2-0.2-0.3-0.4-0.5c-0.1-0.1-0.3-0.5-0.7-0.2c0.5,1.7,1,3.4,1.5,5.2c0.4,1.8,1.1,3.5,1.1,5.3c-0.4-0.4-0.6-0.9-0.8-1.3
				c-3.1-6.4-6.2-12.8-9.7-19c-1.6-2.8-3.2-5.5-5.1-8.1c-3.5-4.7-7.2-9.2-11.1-13.6c-0.2-0.3-0.4-0.7-1-0.6c0.6,0.9,1.1,1.7,1.6,2.5
				c3.6,5.4,7.1,10.8,10.2,16.5c1,1.9,2.1,3.9,2.7,6c1,3.7,2.1,7.4,3.1,11.2c0.1,0.3,0.4,0.6-0.1,0.9c-0.4-0.5-0.8-1.1-1.2-1.6
				c-3.7-5.3-7.6-10.4-11.8-15.4c-3.8-4.5-7.8-8.8-12.2-12.6c-5.6-4.9-11.8-9-18.2-12.6c-12.5-7.1-25.6-12.8-39.2-17.3
				c-6.1-2-12.3-3.8-18.7-5c-0.5-0.1-0.9-0.4-1.4,0.1c0.4,0.2,0.7,0.3,1.1,0.5c6.4,2.5,12.9,5,19.3,7.6c9.4,3.9,18.5,8.2,27.3,13.1
				c4.9,2.7,9.6,5.7,13.9,9.3c0.2,0.2,0.6,0.3,0.4,0.8c-0.4-0.1-0.9-0.1-1.3-0.2c-3.9-0.7-7.9-1.4-11.8-2.1
				c-5.4-0.9-10.9-1.7-16.4-2.1c-2.3-0.2-4.5-0.1-6.8-0.1c-0.3,0-0.7-0.1-0.8,0.5c0.2,0.1,0.4,0.2,0.7,0.3c2.2,0.4,4.3,0.8,6.5,1.2
				c5.3,0.9,10.6,1.9,15.8,3.2c3.5,0.9,7.1,1.9,10.3,3.7c2.6,1.5,5.2,3,7.7,4.7c8.7,5.8,16.9,12.3,24.9,19c0.6,0.5,1.1,1,1.5,1.6
				c6.2,7.4,12,15.2,17,23.4c2.5,4.2,4.9,8.4,6.8,12.9c0.4,0.9,0.6,1.9,0.6,2.9c-0.1,1.9-0.2,3.7-0.5,5.6c-1,7.8-2.9,15.4-5.6,22.8
				c-0.1,0.3-0.3,0.6-0.6,1.2c-0.2-0.7-0.3-1-0.4-1.4c-0.6-2.5-1-5.1-1.7-7.6c-3-11.8-8.3-22.3-16.6-31.2c-0.3-0.3-0.5-0.7-1-0.6
				c-0.3,0.6,0,1.2,0.2,1.7c0.6,1.7,1.4,3.5,2.1,5.2c3,7.2,6,14.4,8.3,21.8c1.4,4.6,2.6,9.2,3.2,14c0.5,3.6,0.8,7.3,0.8,10.9
				c0,4.5-0.1,8.9-0.3,13.4c-0.2,5.7-1,11.4-1,17.1c0,0.3,0.1,0.7-0.5,0.9c-0.3-0.2-0.6-0.4-0.8-0.6c-0.6-0.8-1.1-1.7-1.6-2.5
				c-2.2-4-3.9-8.2-5.5-12.4c-2.2-5.7-5.5-10.8-9.6-15.3c-0.8-0.9-1.8-1.6-2.7-2.4c-0.2-0.2-0.6-0.3-0.9,0c-0.2,0.7,0.1,1.2,0.4,1.7
				c0.5,1,1.1,2,1.7,2.9c2.9,5,5.4,10.1,7.3,15.5c3.5,10,4.5,20.2,2.9,30.7c-1.5,9.7-5.3,18.4-11.2,26.2c-2.4,3.1-5,6-8.1,8.5
				c-0.3,0.3-0.6,0.7-1.3,0.4c-0.2-0.9-0.1-1.8,0-2.7c0.3-2.4,0.7-4.9,0.9-7.3c0.1-1.7,0.1-3.5,0-5.2c-0.1-1.7-0.4-3.3-0.6-5
				c-0.8-7.4-2-14.8-3.7-22.1c-1.3-5.8-3-11.5-5.3-16.9c-2.1-5-4.9-9.6-8.6-13.6c-0.5-0.5-0.9-1-1.4-1.4c-1-0.9-2.3-0.9-3.3-0.1
				c-1,0.8-1.4,2.2-0.7,3.4c0.3,0.6,0.7,1.1,1.1,1.7c3.1,4.7,5.6,9.6,7.3,15.1c0.7,2.2,1.3,4.5,1.9,6.7c1.7,6.8,2.7,13.7,3.5,20.7
				c0,0.3,0.1,0.7,0.1,1c0,1.8-1.3,2.8-3,2.6c-0.3-0.1-0.7-0.1-1-0.3c-1-0.4-2.1-0.9-3.1-1.4c-3.6-2.1-6.5-4.9-8.8-8.3
				c-0.4-0.6-0.8-1.2-1.3-1.8c-0.7-0.8-2-1-2.9-0.5c-1,0.5-1.5,1.3-1.5,2.4c0,0.7,0.3,1.3,0.6,1.9c1.2,1.9,2.4,3.9,3.8,5.7
				c2.7,3.6,5.9,6.8,9.3,9.9c1.4,1.3,2.8,2.5,4.3,3.6c1,0.8,1.5,1.7,1.3,2.9c-0.2,1.7-0.3,3.4-0.6,5.2c-0.9,5.6-2.7,10.8-5.2,15.9
				c-2.6,5.3-5.8,10.2-9.1,15c-4.4,6.4-9.9,11.7-16.3,16.1c-3.5,2.4-7.1,4.4-11,6c-0.8,0.3-1.6,0.6-2.5,0.7
				c-0.9,0.2-1.4-0.5-1.1-1.4c0.4-0.9,0.8-1.8,1.4-2.6c1.7-2.2,3.5-4.4,5.4-6.4c2.9-3.1,5.1-6.6,7-10.4c2.3-4.8,3.8-9.8,4.7-15
				c0.9-4.9,1.4-9.9,0.9-14.9c-0.1-1.5-0.4-3-1.1-4.4c-0.1-0.3-0.3-0.6-0.8-0.5c0,0.2-0.1,0.5-0.1,0.7c-0.4,4.6-1.5,9.1-3,13.4
				c-2,5.7-4.7,11-7.7,16.2c-6.8,11.6-16.1,20.8-27.8,27.6c-0.5,0.3-0.9,0.6-1.4,0.7c-1,0.3-2,0.1-2.7-0.8c-0.7-0.8-0.8-1.8-0.3-2.8
				c0.2-0.4,0.5-0.8,0.8-1.2c2.6-3.8,5.1-7.7,7.3-11.7c1.9-3.6,3.1-7.3,3.7-11.3c0.8-5.4,1.3-10.9,1.5-16.3
				c0.2-4.5,0.2-9.1,0.1-13.6c0-2.5-0.3-4.9-0.4-7.4c-0.1-0.8-0.3-1.6-0.4-2.4c0-0.1-0.2-0.1-0.3-0.2c-0.1,0.2-0.3,0.3-0.3,0.5
				c-0.2,1-0.3,2-0.5,3c-0.7,5.1-1.3,10.3-2,15.4c-0.7,4.9-1.8,9.7-3.5,14.3c-2.7,7.9-6.6,15.1-11.3,22c-3.2,4.8-6.8,9.2-10.9,13.2
				c-2.7,2.7-5.7,5-9.2,6.7c-5.6,2.7-11.7,4.1-17.9,4.5c-6.1,0.4-12.1-0.8-17.9-2.7c-4.7-1.6-9-4-12.6-7.5c-1.3-1.2-2.5-2.4-3.7-3.7
				c-4.6-5-8.6-10.5-12-16.4c-5.3-9-9.1-18.5-10.7-28.8c-0.8-4.6-1.4-9.2-1.9-13.8c-0.2-2-0.5-4-0.8-5.9c0-0.3-0.3-0.5-0.5-0.9
				c-0.1,0.5-0.3,0.7-0.3,1c-0.2,1.9-0.5,3.7-0.6,5.6c-0.3,6.8-0.2,13.6,0.2,20.4c0.3,4.3,0.7,8.6,1.3,12.9
				c0.6,4.1,1.8,7.9,3.7,11.5c2.1,3.9,4.5,7.7,7,11.4c0.3,0.5,0.7,1,1,1.5c0.5,1,0.4,2-0.3,2.8c-0.7,0.9-1.8,1.2-2.9,0.7
				c-0.4-0.2-0.8-0.4-1.2-0.7c-8.1-4.6-15-10.5-20.9-17.7c-5.4-6.6-9.5-14-12.9-21.8c-2.5-5.8-4.3-11.8-4.8-18.1
				c0-0.2-0.1-0.3-0.3-0.5c-0.2,0.2-0.4,0.3-0.5,0.5c-0.8,1.4-1.1,3-1.2,4.6c-0.4,6.4,0.2,12.6,1.7,18.8c0.9,3.7,2.1,7.3,3.7,10.7
				c2,4.4,4.7,8.3,8,11.9c1.7,1.8,3.2,3.8,4.7,5.7c0.5,0.7,0.9,1.5,1.2,2.3c0.4,0.8-0.2,1.5-1,1.4c-0.9-0.2-1.8-0.4-2.7-0.8
				c-8.4-3.6-15.7-8.7-21.8-15.5c-6.7-7.4-11.9-15.8-16-25c-2.3-5.3-3.6-10.8-4.2-16.6c-0.2-1.9,0.2-3.3,1.8-4.5
				c3.2-2.4,6-5.1,8.7-8c2.8-2.9,5.3-6,7.3-9.4c0.4-0.7,0.8-1.4,1.1-2.1c0.5-1.3,0-2.6-1.1-3.3c-1.1-0.7-2.6-0.4-3.4,0.7
				c-0.4,0.6-0.8,1.2-1.2,1.8c-2.1,3.1-4.7,5.6-7.8,7.6c-1.2,0.7-2.5,1.3-3.8,1.8c-0.4,0.2-0.9,0.3-1.3,0.3
				c-1.4,0.1-2.6-0.9-2.7-2.4c0-0.5,0-0.9,0.1-1.4c0.8-6.9,1.9-13.9,3.5-20.7c1.9-8.1,4.8-15.6,9.6-22.4c0.2-0.3,0.5-0.6,0.6-1
				c0.5-1.1,0.2-2.5-0.8-3.2c-1-0.8-2.3-0.8-3.3,0.1c-0.5,0.4-0.9,0.9-1.4,1.4c-4.3,4.6-7.3,10-9.5,15.8c-2.8,7.3-4.7,14.9-6.1,22.5
				c-1,5.2-1.7,10.5-2.3,15.8c-0.3,2.8-0.7,5.6-0.4,8.4c0.3,2.5,0.6,5,0.9,7.5c0.2,1.6,0.2,1.6-0.2,3c-0.3-0.2-0.7-0.4-1-0.6
				c-1.7-1.7-3.6-3.2-5.1-5c-11.7-13.1-16.3-28.6-14.6-46c0.7-6.9,2.6-13.4,5.3-19.8c1.7-4,3.8-7.8,6-11.5c0.5-0.8,0.9-1.6,1.3-2.5
				c0.1-0.3,0-0.6,0-1.1c-0.6,0.3-1,0.4-1.4,0.6c-0.9,0.7-1.7,1.5-2.5,2.3c-4.2,4.6-7.4,9.8-9.6,15.6c-1.6,4.2-3.3,8.3-5.5,12.2
				c-0.5,0.9-1.1,1.7-1.7,2.5c-0.2,0.2-0.5,0.2-1,0.3c0-0.8-0.1-1.4-0.1-1.9c0.1-3.3-0.3-6.6-0.5-10c-0.2-3-0.5-6-0.6-9
				c-0.1-4.1-0.1-8.3-0.1-12.4c0.1-4.7,0.6-9.4,1.5-14.1c1-5.1,2.5-9.9,4.3-14.8c2.4-6.3,5-12.5,7.4-18.8c0.5-1.2,0.9-2.4,1.3-3.6
				c0.1-0.2,0-0.4-0.1-1c-0.5,0.5-0.8,0.7-1,1c-1,1.2-2.1,2.4-3.1,3.7c-4.5,5.4-7.9,11.4-10.4,17.9c-2.4,6.2-4,12.5-5.1,19.1
				c-0.1,0.4,0,0.8-0.6,1.1c-0.2-0.4-0.4-0.8-0.6-1.2c-1.4-3.6-2.5-7.1-3.5-10.8c-1.5-5.5-2.5-11.2-3-16.9c-0.1-1.4,0.1-2.7,0.7-4.1
				c1.5-3.6,3.3-7,5.2-10.4c5.5-9.7,12.1-18.7,19.3-27.2c0.5-0.6,1.1-1.2,1.7-1.7c4.5-3.6,8.9-7.2,13.4-10.7
				c5.2-4,10.5-7.8,16.1-11.2c3.3-2,6.7-3.5,10.4-4.5c6.1-1.7,12.3-2.8,18.5-4c2.2-0.4,4.3-0.8,6.5-1.2c0.3-0.1,0.6-0.2,0.5-0.7
				c-2.6-0.1-5.2-0.2-7.7,0.1c-7,0.6-14,1.7-21,2.9c-2.3,0.4-4.6,0.8-6.9,1.3c-0.5,0.1-0.5,0.1-1.5-0.2c0.4-0.4,0.8-0.8,1.2-1.1
				c2.6-2,5.2-4,8-5.7c5.6-3.4,11.4-6.5,17.4-9.4c11.2-5.4,22.7-10.1,34.4-14.4c0.4-0.1,0.8-0.3,1.3-0.5c-0.5-0.2-1-0.2-1.4-0.1
				c-3.5,0.8-7,1.5-10.5,2.5c-15.5,4.4-30.3,10.5-44.4,18.1C96.9,36.1,90.7,40,85,44.5C78.9,49.3,73.7,55,68.7,61
				c-3.9,4.7-7.5,9.5-11,14.5c-0.2,0.3-0.6,0.6-1.1,1.2c0.1-0.7,0.2-1.1,0.2-1.4c0.9-3.4,1.8-6.8,2.8-10.2c0.4-1.5,1-2.9,1.7-4.3
				c1.6-3.1,3.3-6.1,5.1-9.1c2.1-3.5,4.4-6.8,6.6-10.3c0.3-0.5,0.9-1,0.8-1.7c0.5,0,0.6-0.3,0.5-1.1c-0.3,0.6-0.4,0.8-0.5,1.1
				c-0.8,0.1-1.1,0.8-1.4,1.3c-3,3.7-6.1,7.4-9.1,11.2c-2,2.4-3.7,5.1-5.2,7.8c-2.8,4.9-5.4,9.9-7.9,15c-1.5,3.1-2.9,6.1-4.4,9.2
				c-0.1,0.3-0.4,0.5-0.6,0.8c0-1,0.2-1.9,0.4-2.8c0.2-0.9,0.4-1.8,0.7-2.7c0.2-0.9,0.5-1.8,0.7-2.7c0.3-0.9,0.5-1.8,0.8-2.7
				c0.2-0.8,0.7-1.7,0.6-2.9c-0.6,0.8-1,1.3-1.4,1.8c-2.3,3.3-4.3,6.7-6,10.3c-2.7,5.7-4.6,11.6-5.5,17.9c-0.7,4.6-0.8,9.3-1,13.9
				c-0.1,2,0.1,4,0.1,6c0.1,3.9,0.5,7.8,1.2,11.7c0,0.3,0.3,0.6-0.2,0.9c-0.3-0.4-0.6-0.9-0.9-1.3c-0.9-1.6-1.8-3.1-2.7-4.7
				c-2.8-5.2-5.5-10.3-7.7-15.8c-1.4-3.6-2.3-7.2-2.4-11.1c-0.1-4.2,0.3-8.2,0.9-12.3c0.3-1.7,0.5-3.3,0.9-5.4
				c-0.4,0.5-0.5,0.6-0.6,0.8c-2.8,5.5-5.1,11.2-6.2,17.2C16.7,103,16.6,104.9,15.9,106.6z"/>
			<path d="M73.8,39.8c0.1,0.8-0.5,1.2-0.8,1.7c-2.2,3.4-4.5,6.8-6.6,10.3c-1.8,3-3.5,6-5.1,9.1c-0.7,1.3-1.3,2.8-1.7,4.3
				c-1,3.4-1.9,6.8-2.8,10.2c-0.1,0.3-0.1,0.6-0.2,1.4c0.5-0.6,0.9-0.9,1.1-1.2c3.5-4.9,7.1-9.8,11-14.5c4.9-6,10.2-11.6,16.3-16.5
				c5.8-4.6,12-8.4,18.4-11.9c14.2-7.7,29-13.7,44.4-18.1c3.4-1,7-1.7,10.5-2.5c0.4-0.1,0.9-0.1,1.4,0.1c-0.4,0.2-0.8,0.4-1.3,0.5
				c-11.7,4.3-23.2,9-34.4,14.4c-5.9,2.9-11.8,5.9-17.4,9.4c-2.8,1.7-5.4,3.6-8,5.7c-0.4,0.3-0.8,0.7-1.2,1.1c1,0.3,1,0.3,1.5,0.2
				c2.3-0.4,4.6-0.9,6.9-1.3c6.9-1.2,13.9-2.3,21-2.9c2.6-0.2,5.2-0.2,7.7-0.1c0.1,0.6-0.2,0.7-0.5,0.7c-2.2,0.4-4.3,0.8-6.5,1.2
				c-6.2,1.1-12.4,2.2-18.5,4c-3.7,1-7.1,2.6-10.4,4.5c-5.6,3.4-10.9,7.2-16.1,11.2c-4.5,3.5-9,7.1-13.4,10.7
				c-0.6,0.5-1.2,1-1.7,1.7c-7.2,8.6-13.7,17.5-19.3,27.2c-1.9,3.4-3.6,6.8-5.2,10.4c-0.6,1.3-0.8,2.6-0.7,4.1
				c0.5,5.7,1.5,11.3,3,16.9c1,3.7,2.2,7.3,3.5,10.8c0.2,0.4,0.4,0.8,0.6,1.2c0.6-0.2,0.5-0.7,0.6-1.1c1.1-6.5,2.7-12.9,5.1-19.1
				c2.5-6.5,6-12.5,10.4-17.9c1-1.2,2.1-2.4,3.1-3.7c0.2-0.3,0.5-0.5,1-1c0,0.5,0.1,0.8,0.1,1c-0.4,1.2-0.8,2.4-1.3,3.6
				c-2.5,6.3-5,12.5-7.4,18.8c-1.8,4.8-3.3,9.7-4.3,14.8c-0.9,4.6-1.4,9.4-1.5,14.1c-0.1,4.1,0,8.3,0.1,12.4c0.1,3,0.4,6,0.6,9
				c0.2,3.3,0.6,6.6,0.5,10c0,0.6,0,1.2,0.1,1.9c0.4-0.1,0.8-0.1,1-0.3c0.6-0.8,1.2-1.6,1.7-2.5c2.2-3.9,3.9-8,5.5-12.2
				c2.2-5.8,5.4-11,9.6-15.6c0.8-0.8,1.6-1.6,2.5-2.3c0.3-0.3,0.8-0.4,1.4-0.6c0,0.5,0.1,0.9,0,1.1c-0.4,0.9-0.8,1.7-1.3,2.5
				c-2.2,3.8-4.2,7.5-6,11.5c-2.8,6.3-4.7,12.9-5.3,19.8c-1.7,17.4,2.9,32.8,14.6,46c1.6,1.8,3.4,3.4,5.1,5c0.3,0.3,0.6,0.4,1,0.6
				c0.4-1.4,0.4-1.4,0.2-3c-0.3-2.5-0.6-5-0.9-7.5c-0.3-2.8,0.1-5.6,0.4-8.4c0.6-5.3,1.3-10.6,2.3-15.8c1.4-7.7,3.2-15.2,6.1-22.5
				c2.3-5.8,5.3-11.2,9.5-15.8c0.4-0.5,0.9-1,1.4-1.4c1-0.8,2.3-0.8,3.3-0.1c1,0.8,1.3,2.1,0.8,3.2c-0.2,0.4-0.4,0.7-0.6,1
				c-4.8,6.8-7.7,14.4-9.6,22.4c-1.6,6.8-2.7,13.7-3.5,20.7c-0.1,0.5-0.1,0.9-0.1,1.4c0.1,1.4,1.2,2.5,2.7,2.4
				c0.5,0,0.9-0.1,1.3-0.3c1.3-0.6,2.6-1.1,3.8-1.8c3.1-2,5.7-4.5,7.8-7.6c0.4-0.6,0.8-1.2,1.2-1.8c0.8-1.1,2.3-1.3,3.4-0.7
				c1.2,0.7,1.6,2,1.1,3.3c-0.3,0.7-0.7,1.4-1.1,2.1c-2.1,3.4-4.6,6.5-7.3,9.4c-2.7,2.8-5.5,5.6-8.7,8c-1.6,1.2-2,2.6-1.8,4.5
				c0.6,5.7,1.8,11.3,4.2,16.6c4.1,9.1,9.3,17.5,16,25c6.1,6.8,13.4,11.9,21.8,15.5c0.9,0.4,1.8,0.6,2.7,0.8c0.9,0.2,1.4-0.5,1-1.4
				c-0.3-0.8-0.7-1.6-1.2-2.3c-1.5-1.9-3-3.9-4.7-5.7c-3.3-3.5-6-7.5-8-11.9c-1.6-3.5-2.8-7-3.7-10.7c-1.6-6.2-2.2-12.5-1.7-18.8
				c0.1-1.6,0.4-3.2,1.2-4.6c0.1-0.1,0.3-0.3,0.5-0.5c0.1,0.2,0.2,0.4,0.3,0.5c0.5,6.3,2.3,12.3,4.8,18.1
				c3.4,7.8,7.4,15.2,12.9,21.8c5.9,7.2,12.9,13.1,20.9,17.7c0.4,0.2,0.8,0.5,1.2,0.7c1.1,0.4,2.1,0.1,2.9-0.7
				c0.7-0.8,0.8-1.8,0.3-2.8c-0.3-0.5-0.7-1-1-1.5c-2.5-3.7-4.9-7.5-7-11.4c-1.9-3.6-3.1-7.5-3.7-11.5c-0.6-4.3-1-8.6-1.3-12.9
				c-0.4-6.8-0.5-13.6-0.2-20.4c0.1-1.9,0.4-3.7,0.6-5.6c0-0.3,0.1-0.5,0.3-1c0.3,0.4,0.5,0.7,0.5,0.9c0.3,2,0.6,3.9,0.8,5.9
				c0.5,4.6,1.2,9.2,1.9,13.8c1.7,10.3,5.4,19.9,10.7,28.8c3.5,5.9,7.4,11.4,12,16.4c1.2,1.3,2.4,2.5,3.7,3.7
				c3.6,3.5,7.8,5.9,12.6,7.5c5.8,1.9,11.7,3.1,17.9,2.7c6.2-0.4,12.2-1.8,17.9-4.5c3.4-1.7,6.4-4,9.2-6.7c4.1-4,7.7-8.5,10.9-13.2
				c4.7-6.9,8.5-14.1,11.3-22c1.6-4.7,2.7-9.5,3.5-14.4c0.8-5.1,1.4-10.3,2-15.4c0.1-1,0.3-2,0.5-3c0-0.2,0.2-0.3,0.3-0.5
				c0.1,0.1,0.3,0.1,0.3,0.2c0.2,0.8,0.4,1.6,0.4,2.4c0.2,2.5,0.4,4.9,0.4,7.4c0,4.5,0,9.1-0.1,13.6c-0.2,5.5-0.6,10.9-1.5,16.3
				c-0.6,4-1.8,7.8-3.7,11.3c-2.2,4-4.7,7.9-7.3,11.7c-0.3,0.4-0.5,0.8-0.8,1.2c-0.5,1-0.4,2,0.3,2.8c0.7,0.8,1.7,1.1,2.7,0.8
				c0.5-0.1,1-0.5,1.4-0.7c11.6-6.8,20.9-15.9,27.8-27.6c3-5.2,5.7-10.5,7.7-16.2c1.5-4.3,2.6-8.8,3-13.4c0-0.3,0.1-0.5,0.1-0.7
				c0.5-0.1,0.6,0.2,0.8,0.5c0.7,1.4,1,2.9,1.1,4.4c0.5,5,0,10-0.9,14.9c-1,5.2-2.5,10.2-4.7,15c-1.8,3.8-4.1,7.3-7,10.4
				c-1.9,2.1-3.6,4.2-5.4,6.4c-0.6,0.8-1,1.7-1.4,2.6c-0.4,0.8,0.2,1.5,1.1,1.4c0.8-0.1,1.7-0.4,2.5-0.7c3.9-1.6,7.5-3.6,11-6
				c6.4-4.4,11.8-9.7,16.3-16.1c3.4-4.8,6.5-9.7,9.1-15c2.5-5.1,4.3-10.3,5.2-15.9c0.3-1.7,0.4-3.4,0.6-5.2c0.1-1.3-0.3-2.2-1.3-2.9
				c-1.5-1.2-2.9-2.4-4.3-3.6c-3.4-3-6.6-6.2-9.3-9.9c-1.4-1.8-2.5-3.8-3.8-5.7c-0.4-0.6-0.6-1.2-0.6-1.9c0-1.1,0.5-1.9,1.5-2.4
				c1-0.5,2.2-0.3,2.9,0.5c0.5,0.5,0.9,1.2,1.3,1.8c2.3,3.4,5.2,6.2,8.8,8.3c1,0.6,2,1,3.1,1.4c0.3,0.1,0.6,0.2,1,0.3
				c1.8,0.3,3-0.8,3-2.6c0-0.3,0-0.7-0.1-1c-0.8-6.9-1.9-13.9-3.5-20.7c-0.6-2.3-1.2-4.5-1.9-6.7c-1.6-5.4-4.1-10.4-7.3-15.1
				c-0.4-0.6-0.8-1.1-1.1-1.7c-0.6-1.2-0.3-2.6,0.7-3.4c1-0.8,2.3-0.7,3.3,0.1c0.5,0.4,1,0.9,1.4,1.4c3.7,4,6.5,8.6,8.6,13.6
				c2.3,5.5,4,11.1,5.3,16.9c1.7,7.3,2.9,14.6,3.7,22.1c0.2,1.6,0.5,3.3,0.6,5c0.1,1.7,0.1,3.5,0,5.2c-0.2,2.4-0.5,4.9-0.9,7.3
				c-0.1,0.9-0.3,1.8,0,2.7c0.6,0.3,0.9-0.1,1.3-0.4c3-2.5,5.7-5.4,8.1-8.5c5.9-7.8,9.7-16.5,11.2-26.2c1.6-10.5,0.6-20.7-2.9-30.7
				c-1.9-5.4-4.4-10.6-7.3-15.5c-0.6-1-1.1-1.9-1.7-2.9c-0.3-0.5-0.6-1-0.4-1.7c0.3-0.3,0.7-0.2,0.9,0c0.9,0.8,1.9,1.5,2.7,2.4
				c4.1,4.5,7.4,9.6,9.6,15.3c1.6,4.2,3.3,8.4,5.5,12.4c0.5,0.9,1,1.7,1.6,2.5c0.2,0.3,0.6,0.5,0.8,0.6c0.5-0.2,0.5-0.6,0.5-0.9
				c-0.1-5.7,0.8-11.4,1-17.1c0.2-4.5,0.3-8.9,0.3-13.4c0-3.7-0.3-7.3-0.8-10.9c-0.6-4.8-1.8-9.4-3.2-14c-2.3-7.4-5.3-14.6-8.3-21.8
				c-0.7-1.7-1.4-3.4-2.1-5.2c-0.2-0.5-0.5-1.1-0.2-1.7c0.5,0,0.7,0.4,1,0.6c8.3,8.9,13.7,19.4,16.6,31.2c0.6,2.5,1.1,5.1,1.7,7.6
				c0.1,0.4,0.2,0.7,0.4,1.4c0.3-0.6,0.5-0.9,0.6-1.2c2.7-7.4,4.6-15,5.6-22.8c0.2-1.8,0.3-3.7,0.5-5.6c0.1-1-0.2-2-0.6-2.9
				c-1.9-4.5-4.3-8.7-6.8-12.9c-5-8.3-10.8-16-17-23.4c-0.5-0.6-1-1.1-1.5-1.6c-8.1-6.7-16.2-13.2-24.9-19c-2.5-1.7-5.1-3.2-7.7-4.7
				c-3.2-1.8-6.7-2.8-10.3-3.7c-5.2-1.3-10.5-2.3-15.8-3.2c-2.2-0.4-4.3-0.8-6.5-1.2c-0.2,0-0.5-0.2-0.7-0.3
				c0.1-0.6,0.5-0.5,0.8-0.5c2.3,0,4.5-0.1,6.8,0.1c5.5,0.4,11,1.2,16.4,2.1c3.9,0.7,7.9,1.4,11.8,2.1c0.5,0.1,0.9,0.1,1.3,0.2
				c0.3-0.5-0.1-0.6-0.4-0.8c-4.3-3.6-9-6.6-13.9-9.3c-8.8-4.9-18-9.3-27.3-13.1c-6.4-2.6-12.9-5.1-19.3-7.6
				c-0.4-0.1-0.7-0.3-1.1-0.5c0.5-0.6,1-0.2,1.4-0.1c6.4,1.2,12.5,3,18.7,5c13.6,4.5,26.7,10.2,39.2,17.3
				c6.4,3.7,12.6,7.7,18.2,12.6c4.4,3.9,8.4,8.1,12.2,12.6c4.2,4.9,8.1,10.1,11.8,15.4c0.4,0.5,0.8,1.1,1.2,1.6
				c0.5-0.3,0.2-0.7,0.1-0.9c-1-3.7-2-7.4-3.1-11.2c-0.6-2.1-1.6-4.1-2.7-6c-3.1-5.7-6.6-11.1-10.2-16.5c-0.5-0.8-1.1-1.6-1.6-2.5
				c0.6,0,0.8,0.3,1,0.6c3.9,4.4,7.6,9,11.1,13.7c1.9,2.6,3.5,5.3,5.1,8.1c3.5,6.2,6.6,12.6,9.7,19c0.2,0.5,0.5,0.9,0.8,1.3
				c0-1.8-0.7-3.6-1.1-5.3c-0.4-1.7-1-3.4-1.5-5.2c0.4-0.3,0.5,0,0.7,0.2c0.1,0.1,0.3,0.3,0.4,0.5c4,5.5,7.1,11.4,9.3,17.8
				c1.9,5.4,2.9,11,3.3,16.8c0.3,5.1,0.5,10.1,0.2,15.2c-0.2,3.7-0.6,7.3-1.2,10.9c0,0.2,0,0.4-0.1,0.8c0.3-0.4,0.5-0.5,0.6-0.7
				c4-6.9,7.9-13.9,10.8-21.3c1.6-3.9,2.4-8,2.4-12.3c0-4.9-0.6-9.7-1.5-14.5c-0.1-0.4-0.1-0.9-0.2-1.8c0.5,0.7,0.6,0.9,0.8,1.2
				c2.5,4.9,4.5,10,5.6,15.3c0.2,1.2,0.3,2.4,0.5,3.6c0.1,0.7,0.2,1.3,0.3,1.9c0,1.5,0,2.9,0,4.4c-0.5,0.4-0.3,1-0.3,1.5
				c-0.1,1.6-0.4,3.2-0.7,4.7c-1.7,7.4-4.5,14.3-7.8,21.1c-2.5,5-5.4,9.6-8.9,13.9c-3.9,4.7-7.5,9.5-11.3,14.2c-0.6,0.8-1,1.6-1,2.7
				c0,2.9,0,5.9-0.1,8.8c-0.1,3.5-0.3,6.9-0.7,10.4c-0.5,5.5-1.4,11-2.3,16.4c-0.8,5.1-2.2,10-4.4,14.7c-0.9,1.7-1.7,3.5-2.6,5.2
				c-0.9,1.8-1.9,3.6-2.9,5.5c-0.4,0.7-0.8,1.4-0.7,2.2c0.5,0.4,0.9,0.1,1.4,0c2.9-1.3,5.5-3,7.8-5.2c3.8-3.6,6.5-7.9,8.5-12.7
				c1.9-4.4,2.7-9,2.5-13.8c-0.1-2.8-0.4-5.6-1-8.3c-0.5-2.5-1.1-4.9-1.6-7.4c-0.1-0.5-0.3-1,0-1.5c0.6-0.1,0.8,0.3,1.1,0.7
				c1.5,1.7,2.7,3.7,3.6,5.7c3.3,7.2,4.5,14.7,3.5,22.6c-0.6,4.6-2.1,8.9-4.7,12.8c-2.1,3.3-4.6,6.4-7.4,9.2
				c-7.8,8-16.7,14.7-26.5,20.1c-0.6,0.3-1.2,0.6-1.7,1c-0.5,0.3-1,0.7-1.5,1.1c-0.2,0.2-0.4,0.4-0.6,0.6c-0.5,0.6-0.3,1.3,0.4,1.6
				c1.1,0.5,2.4,0.5,3.5,0.5c5.1-0.1,10.1-1,14.9-2.6c2-0.7,3.8-1.7,5.3-3.1c1.5-1.5,3-3,4.4-4.6c1.8-2.2,3.4-4.6,5.1-6.9
				c0.5-0.7,1-1.4,1.6-2.1c0.2-0.2,0.5-0.4,1-0.7c-0.1,0.7-0.1,1.2-0.2,1.6c-1.4,5.7-3.9,10.9-7.5,15.5c-3.7,4.8-8.5,7.7-14.5,8.8
				c-3.2,0.6-6.5,0.9-9.7,1.2c-2.9,0.2-5.8,0.5-8.7,0.8c-4.2,0.6-8,2-11.3,4.6c-0.9,0.7-1.8,1.4-2.7,2.1c-3.1,2.6-6.1,5.1-9.2,7.7
				c-8.3,6.9-17.5,12.4-27.6,16.2c-7.1,2.7-14.1,5.6-21,8.7c-7.5,3.3-14.9,6.8-22.6,9.5c-0.5,0.2-1,0.5-1.3,0.8
				c-2,2-3.9,4.2-5.4,6.7c-0.6,1-1,2-1.1,3.2c-0.2,1.9,0.7,2.7,2.6,2.7c0.3,0,0.5-0.1,0.8-0.1c1.8-0.3,3.5-1,5.1-1.8
				c2.6-1.4,5.1-2.8,7.7-4.3c5.5-3.1,11-6.2,16.5-9.3c2.9-1.6,5.9-3,9.2-3.9c6.1-1.6,12.4-2.3,18.8-2.5c0.2,0,0.4,0,0.6,0
				c1.1,0,2.4,1.2,2.3,2.3c0,0.6,0,1.2,0,1.8c-0.2,2.5-0.8,5-1.5,7.4c-2.1,6.5-5.4,12.5-9.5,17.9c-2.4,3.1-5.1,5.8-8.3,8.1
				c-4.8,3.4-10.1,4.9-16,4.4c-1.9-0.2-3.8-0.5-5.7-0.9c-2.5-0.5-5.1-1.1-7.6-1.6c-2.6-0.5-5.4,0.6-6.9,3.3
				c-0.8,1.4-1.3,2.9-1.6,4.5c-0.5,2.6-0.8,5.3-0.8,7.9c-0.1,6.1,0.3,12.2,1.5,18.3c1.3,6.6,3.2,12.9,5.5,19.2
				c3.2,8.6,6.9,16.9,10.8,25.1c2.4,5.2,5,10.3,8.1,15.1c4.5,7,10.2,12.6,17.7,16.3c2.7,1.4,5.6,2.5,8.4,3.6c7.4,2.7,15.2,4,23,4.8
				c5.4,0.6,10.7,1.1,16,2.1c7,1.2,13.7,3.3,20.1,6.4c4.2,2,7.9,4.6,11.2,7.9c4.6,4.6,8.1,10,11,15.9c2.8,5.7,4.9,11.7,6.2,17.9
				c0.3,1.2,0.8,2,1.9,2.7c1.5,0.9,2.8,2.1,4,3.3c2.6,2.9,4.1,6.2,4,10.1c0,4.1-0.6,8.1-1.3,12.1c0,0.3-0.1,0.5-0.2,0.8
				c-0.3,1-0.9,1.6-1.9,1.9c-0.4,0.1-0.9,0.2-1.2,0.3c-0.1,0.3-0.1,0.4-0.1,0.5c-0.1,4.6-0.2,9.2-0.3,13.8
				c-0.1,6.5-0.3,12.9-0.4,19.4c-0.1,6.5-0.3,13-0.4,19.6c-0.1,5.6-0.2,11.2-0.3,16.8c0,2.1-0.3,4.2-1,6.3
				c-1.2,3.6-2.3,7.2-3.6,10.8c-3.7,10.4-8,20.5-12.6,30.5c-0.5,1.1-0.9,2.2-1.1,3.4c-1.7,10.9-3.4,21.8-5.2,32.8
				c-1.7,10.4-3.6,20.7-5.4,31.1c-1.4,8.2-2.9,16.4-4.3,24.6c-0.3,1.5-0.6,3-2,4c-0.7,0-1.3,0-2,0c-0.7-0.8-1.7-0.7-2.5-1.1
				c-1.5-0.6-2-1.3-1.9-2.9c0-0.9,0.1-1.7,0.2-2.6c0.5-4.8,1-9.7,1.4-14.5c0.5-5,0.9-10,1.4-14.9c0.6-6.3,1.2-12.6,1.8-18.9
				c0.6-6.2,1.2-12.5,1.8-18.7c0.8-8.5,1.6-17,2.4-25.5c0.1-1.5,0.4-3,0.6-4.6c0.6-3.9,1.2-7.8,1.8-11.7c0.8-5.5,1.5-11.1,2.2-16.6
				c0.4-3.6,0.6-7.2,0.9-10.8c0.1-2.2,0.1-4.4,0.2-6.6c0.1-2.5,0.3-5,0.6-7.6c0.2-2-1.2-3.5-3.1-3.2c-1.1,0.1-2.3,0-3.4,0
				c-0.6,0-1.2,0-1.7,0.4c-1.2,0.8-2.4,1.6-3.6,2.4c-0.3,3.3-0.5,6.5-0.9,9.7c-0.5,4.8-1.3,9.5-2.6,14.1c-1.6,5.6-2.9,11.2-4.1,16.9
				c-0.6,3-1.2,6-1.3,9.1c-0.1,3.6-0.4,7.2-0.5,10.8c-0.1,2.6-0.3,5.2-0.4,7.8c-0.3,5.9-0.7,11.8-1,17.7c-0.2,3.5-0.4,7-0.6,10.6
				c-0.3,6-0.7,12.1-1,18.1c-0.2,3.4-0.4,6.8-0.5,10.2c-0.4,6.5-0.7,13-1.1,19.5c-0.1,2-0.2,4-0.4,6c-0.1,1.8-1.1,2.6-2.8,2.7
				c-0.7,0-1.5,0-2.2,0c-1.8-0.1-2.7-0.9-2.9-2.7c-0.1-0.8-0.1-1.6-0.2-2.4c-0.5-5-1-10.1-1.5-15.1c-0.3-3.3-0.6-6.5-0.9-9.7
				c-0.5-4.8-1-9.7-1.4-14.5c-0.3-3.4-0.6-6.8-1-10.1c-0.5-4.8-1-9.5-1.4-14.3s-0.9-9.5-1.4-14.3s-1-9.5-1.4-14.3
				c-0.5-4.9-0.9-9.8-1.4-14.7c-0.5-5.2-1-10.5-1.5-15.7c-0.1-1.1-0.2-2.3-0.4-3.4c-0.2-1.3-0.6-1.6-1.9-1.5c-0.7,0-1.3,0.1-2,0.2
				c-2.7,0.2-5.4,0.5-8.2,0.6c-4.3,0.1-8.5,0.2-12.8,0.1c-4.1,0-8.1-0.2-12.1-1.2c-1.1-0.3-1.8,0.1-2.2,1.1
				c-0.2,0.7-0.3,1.4-0.4,2.2c-0.2,2.2-0.4,4.4-0.6,6.6c-0.5,4.9-1,9.8-1.4,14.7c-0.3,3.3-0.6,6.6-0.9,9.9c-0.5,5-1,10.1-1.5,15.1
				c-0.3,3.2-0.6,6.4-0.9,9.5c-0.5,5.1-1,10.2-1.5,15.3c-0.3,3.2-0.6,6.4-0.9,9.5c-0.5,4.8-1,9.7-1.4,14.5
				c-0.5,4.8-0.9,9.5-1.4,14.3c-0.5,5.1-1,10.2-1.5,15.3c-0.1,0.9-0.2,1.9-0.3,2.8c-0.2,1.3-1.1,2.1-2.5,2.2c-0.8,0-1.6,0-2.4,0
				c-1.9,0-2.7-0.8-3-2.5c0-0.3-0.1-0.5-0.1-0.8c-0.2-3.1-0.3-6.1-0.5-9.2c-0.2-3.6-0.4-7.2-0.6-10.8c-0.3-6-0.7-12.1-1-18.1
				c-0.2-3.4-0.4-6.8-0.5-10.2c-0.4-6.1-0.7-12.2-1.1-18.3c-0.2-3.3-0.4-6.7-0.5-10c-0.4-6.6-0.7-13.2-1.1-19.7
				c-0.1-2.2-0.3-4.4-0.4-6.6c0-0.4-0.1-0.8-0.1-1.2c-1.2-6.8-2.7-13.6-4.6-20.2c-2.2-7.6-3.3-15.3-3.6-23.2c0-0.7-0.1-1.5-0.1-2.2
				c-1.5-1.1-3.1-1.8-4.7-2.7c-0.2-0.1-0.4-0.2-0.6-0.2c-1.5,0-2.9-0.1-4.4,0c-1.2,0.1-2.1,1.1-2.1,2.2c0,0.8,0,1.6,0.1,2.4
				c0.1,1.7,0.3,3.3,0.3,5c0.1,3.3,0.2,6.5,0.4,9.8c0.3,3.9,0.7,7.8,1.1,11.7c0.6,4.7,1.3,9.4,1.9,14.1c0.7,5.5,1.9,10.9,2.3,16.4
				c0.4,5.2,1,10.3,1.4,15.5c0.3,3.4,0.6,6.8,0.9,10.1c0.5,5,1,10.1,1.5,15.1c0.3,3.3,0.6,6.5,0.9,9.8c0.5,5,1,9.9,1.4,14.9
				c0.3,3.5,0.6,7,1,10.5c0.5,4.8,0.9,9.7,1.4,14.5c0.1,1.1,0.2,2.3,0.3,3.4c0.2,2-0.4,2.9-2.4,3.6c-0.4,0.2-0.9,0.3-1.3,0.4
				c-0.2,0.1-0.4,0.3-0.6,0.5c-0.8,0-1.6,0-2.4,0c-0.1-0.2-0.2-0.5-0.4-0.7c-0.7-0.6-1-1.4-1.1-2.3c-0.7-3.9-1.3-7.7-2-11.6
				c-1.4-8.1-2.9-16.1-4.3-24.2c-1.4-8.1-2.8-16.3-4.2-24.4c-1.5-8.9-2.9-17.7-4.2-26.6c-0.4-2.9-1.2-5.5-2.4-8.2
				c-4.3-9.3-8.2-18.8-11.7-28.5c-3.2-8.9-5.7-18-7.6-27.3c-1.5-7-2.7-14-3.9-21c-0.2-1.5-0.4-3-0.6-4.5c-0.1-1.2-0.6-2-1.7-2.5
				c-0.8-0.4-1.6-0.9-2.4-1.4c-0.5-0.3-0.9-0.7-1.4-1.2c-1.3-1.3-1.6-2.7-0.9-4.4c0.1-0.3,0.3-0.6,0.4-0.9c-0.1-0.3-0.2-0.5-0.4-0.7
				c-6.4-11.3-10.6-23.3-13-36.1c-0.7-3.9-1-7.9-0.9-11.9c0.2-4.4,1.1-8.7,2.4-12.9c0.9-2.8,1.9-5.6,2.8-8.3
				c2-5.9,2.7-11.9,2.8-18.1c0.1-5.6-0.1-11.2-0.5-16.8c-0.5-6.2-1.1-12.3-1.8-18.5c-0.6-5-1.4-10-1.9-15.1
				c-0.3-2.8-0.5-5.6-0.6-8.4c-0.1-3.4-0.1-6.8,0.1-10.2c0.2-4.9,0.7-9.7,1.4-14.5c0.8-6.1,2.3-12,3.5-18c0.8-4,1.4-8.1,1.7-12.3
				c0.4-6-0.6-11.7-3.5-17c-2-3.6-4.8-6.4-8.7-7.9c-3.2-1.2-6.4-1.2-9.6,0.1c-2.5,1-5.1,1.9-7.8,2.5c-6.2,1.3-12.2,0.7-17.9-2.2
				c-2.2-1.1-4.1-2.6-5.8-4.5c-2.6-2.9-4.7-6.1-6.4-9.6c-3.3-6.6-5.6-13.5-7.1-20.7c-0.1-0.5-0.2-0.9-0.2-1.4c0-1.1,0.6-1.8,1.6-1.9
				c1.3-0.1,2.7-0.1,4,0.3c3.8,1,7.6,2.1,11.3,3.2c3.6,1,7.2,2,10.8,3c2,0.6,3.9,1.2,5.9,2c4.5,1.8,8.4,4.6,11.6,8.3
				c1.5,1.7,2.9,3.5,4.3,5.2c1.8,2.1,3.9,4,6.4,5.4c0.8,0.5,1.7,0.9,2.6,1.1c1.8,0.4,3-0.3,3.4-2.1c0.4-1.8,0.4-3.6-0.5-5.3
				c-0.4-0.8-0.9-1.5-1.4-2.2c-3.1-4.2-7-7.5-11.2-10.5c-0.3-0.2-0.7-0.4-1.1-0.6c-8.1-3.5-16.2-7.1-24.4-10.6
				c-4.3-1.9-8.7-3.6-13.1-5.3c-10.2-3.9-19.4-9.4-27.7-16.4c-3-2.5-6-5-9-7.6c-0.9-0.7-1.8-1.4-2.7-2.1c-3.3-2.7-7.2-4.1-11.3-4.6
				c-3-0.4-6-0.6-8.9-0.9c-4-0.4-8.1-0.7-12-1.8c-4.3-1.2-7.9-3.5-10.8-6.8c-4.3-4.9-7.1-10.8-8.7-17.1c-0.1-0.4,0-0.7,0-1.1
				c0.7,0,1,0.6,1.3,1c1.2,1.6,2.3,3.3,3.5,4.9c1.8,2.5,3.7,4.9,5.9,7c2.3,2.3,4.9,3.9,8,4.8c4.3,1.3,8.7,2,13.2,2.2
				c0.9,0,1.9-0.1,2.8-0.2c0.4,0,0.8-0.2,1.1-0.4c0.7-0.3,0.9-0.9,0.4-1.5c-0.3-0.4-0.7-0.8-1.2-1.1c-0.8-0.6-1.7-1.1-2.6-1.6
				c-9.7-5.4-18.5-12-26.3-20c-2.4-2.5-4.6-5.1-6.7-8c-3.8-5.2-5.6-11.1-5.9-17.5c-0.3-7.3,1.1-14.2,4.5-20.6
				c0.8-1.5,1.9-2.9,2.8-4.3c0.3-0.4,0.7-0.6,1-0.9c0.6,0.3,0.4,0.7,0.4,1.1c-0.3,1.4-0.6,2.7-0.9,4.1c-1,4.5-1.8,9-1.8,13.6
				c0,3.4,0.5,6.6,1.6,9.8c1.7,4.8,4,9.3,7.4,13.2c2.7,3.1,5.9,5.6,9.7,7.2c0.5,0.2,0.9,0.6,1.5,0.1c0-0.8-0.4-1.5-0.7-2.2
				c-1-2-2-3.9-3-5.8c-1.7-3.3-3.3-6.5-4.5-10c-1.1-3.1-1.7-6.3-2.3-9.5c-1-5.5-1.8-11.1-2.3-16.6c-0.3-3.5-0.5-7-0.7-10.6
				c-0.1-2.5-0.2-4.9-0.2-7.4c0-0.9-0.3-1.5-0.8-2.2c-4.4-5.5-8.8-11.1-13.2-16.6c-2.6-3.3-4.9-6.8-6.9-10.5c-3.9-7.3-7-14.9-9-23
				c-0.5-1.8-0.7-3.7-1.1-5.5c-0.2-0.9-0.5-1.8-0.8-2.7c0-0.7,0-1.3,0-2c0.7-1.7,0.8-3.6,1.1-5.4c1.1-6.1,3.4-11.8,6.2-17.2
				c0.1-0.2,0.2-0.3,0.6-0.8c-0.4,2.1-0.6,3.7-0.9,5.4c-0.6,4.1-1,8.2-0.9,12.3c0.1,3.8,0.9,7.5,2.4,11.1c2.2,5.4,4.9,10.7,7.7,15.8
				c0.9,1.6,1.8,3.1,2.7,4.7c0.3,0.4,0.6,0.9,0.9,1.3c0.5-0.3,0.3-0.6,0.2-0.9c-0.7-3.9-1.1-7.8-1.2-11.7c-0.1-2-0.2-4-0.1-6
				c0.2-4.7,0.3-9.3,1-13.9c0.9-6.2,2.8-12.2,5.5-17.9c1.7-3.6,3.7-7.1,6-10.3c0.4-0.5,0.8-1,1.4-1.8c0,1.3-0.4,2.1-0.6,2.9
				c-0.2,0.9-0.5,1.8-0.8,2.7s-0.5,1.8-0.7,2.7c-0.2,0.9-0.5,1.8-0.7,2.7c-0.2,0.9-0.4,1.8-0.4,2.8c0.2-0.3,0.4-0.5,0.6-0.8
				c1.5-3.1,3-6.1,4.4-9.2c2.5-5.1,5.1-10.1,7.9-15c1.5-2.7,3.3-5.3,5.2-7.8c3-3.7,6-7.5,9.1-11.2C72.8,40.6,73.1,39.9,73.8,39.8
				L73.8,39.8z"/>
			<path class="st0" d="M358,758.3c1.3-1,1.7-2.5,2-4c1.4-8.2,2.9-16.4,4.3-24.6c1.8-10.4,3.7-20.7,5.4-31.1
				c1.8-10.9,3.5-21.8,5.2-32.8c0.2-1.2,0.6-2.3,1.1-3.4c4.6-10,8.9-20.1,12.6-30.5c1.3-3.6,2.4-7.2,3.6-10.8c0.7-2,0.9-4.1,1-6.3
				c0.1-5.6,0.1-11.2,0.3-16.8c0.1-6.5,0.3-13,0.4-19.6c0.1-6.5,0.3-12.9,0.4-19.4c0.1-4.6,0.2-9.2,0.3-13.8c0-0.1,0-0.3,0.1-0.5
				c0.4-0.1,0.8-0.2,1.2-0.3c1-0.3,1.6-0.9,1.9-1.9c0.1-0.3,0.2-0.5,0.2-0.8c0.7-4,1.3-8,1.3-12.1c0-4-1.4-7.3-4-10.1
				c-1.2-1.3-2.5-2.4-4-3.3c-1-0.6-1.6-1.5-1.9-2.7c-1.4-6.2-3.5-12.2-6.2-17.9c-2.8-5.9-6.4-11.2-11-15.9c-3.3-3.3-7-5.9-11.2-7.9
				c-6.4-3.1-13.1-5.1-20.1-6.4c-5.3-0.9-10.7-1.5-16-2.1c-7.8-0.9-15.6-2.1-23-4.8c-2.9-1-5.7-2.2-8.4-3.6
				c-7.5-3.7-13.3-9.3-17.7-16.3c-3.1-4.8-5.6-10-8.1-15.1c-3.9-8.3-7.6-16.6-10.8-25.1c-2.3-6.3-4.3-12.6-5.6-19.2
				c-1.1-6-1.6-12.1-1.5-18.3c0.1-2.7,0.3-5.3,0.8-7.9c0.3-1.6,0.8-3.1,1.6-4.5c1.5-2.7,4.3-3.8,6.9-3.3c2.5,0.5,5.1,1.1,7.6,1.6
				c1.9,0.4,3.8,0.7,5.7,0.9c5.9,0.5,11.2-1,16-4.4c3.2-2.3,5.9-5,8.3-8.1c4.2-5.4,7.5-11.3,9.5-17.9c0.8-2.4,1.4-4.9,1.5-7.4
				c0-0.6,0-1.2,0-1.8c0.1-1.1-1.3-2.4-2.3-2.3c-0.2,0-0.4,0-0.6,0c-6.3,0.3-12.6,0.9-18.8,2.5c-3.2,0.8-6.3,2.3-9.2,3.9
				c-5.5,3-11,6.2-16.5,9.3c-2.5,1.4-5.1,2.9-7.7,4.3c-1.6,0.8-3.3,1.5-5.1,1.8c-0.3,0-0.5,0.1-0.8,0.1c-1.9,0-2.8-0.8-2.6-2.7
				c0.1-1.1,0.6-2.2,1.1-3.2c1.5-2.5,3.4-4.6,5.4-6.7c0.4-0.4,0.9-0.7,1.3-0.8c7.7-2.7,15.1-6.3,22.6-9.5c7-3,13.9-6,21-8.7
				c10.1-3.8,19.3-9.3,27.6-16.2c3.1-2.5,6.1-5.1,9.2-7.7c0.9-0.7,1.8-1.4,2.7-2.1c3.3-2.7,7.2-4.1,11.3-4.6
				c2.9-0.4,5.8-0.6,8.7-0.8c3.3-0.3,6.5-0.6,9.7-1.2c6-1.1,10.8-4,14.5-8.8c3.6-4.6,6.1-9.8,7.5-15.5c0.1-0.4,0.1-0.9,0.2-1.6
				c-0.5,0.3-0.8,0.5-1,0.7c-0.5,0.7-1,1.4-1.6,2.1c-1.7,2.3-3.3,4.7-5.1,6.9c-1.3,1.6-2.9,3.1-4.4,4.6c-1.5,1.5-3.3,2.5-5.3,3.1
				c-4.8,1.7-9.8,2.5-14.9,2.6c-1.2,0-2.4,0-3.5-0.5c-0.8-0.3-0.9-1-0.4-1.6c0.2-0.2,0.4-0.4,0.6-0.6c0.5-0.4,1-0.7,1.5-1.1
				c0.6-0.4,1.2-0.6,1.7-1c9.8-5.4,18.6-12.1,26.5-20.1c2.8-2.8,5.2-5.9,7.4-9.2c2.5-3.9,4.1-8.2,4.7-12.8c1-7.9-0.2-15.4-3.5-22.6
				c-1-2.1-2.1-4-3.6-5.7c-0.3-0.3-0.5-0.8-1.1-0.7c-0.4,0.5-0.1,1,0,1.5c0.5,2.5,1.1,4.9,1.6,7.4c0.5,2.8,0.9,5.5,1,8.3
				c0.2,4.8-0.7,9.4-2.5,13.8c-2,4.8-4.6,9.1-8.5,12.7c-2.3,2.2-4.9,3.9-7.8,5.2c-0.4,0.2-0.8,0.5-1.4,0c-0.1-0.8,0.3-1.5,0.7-2.2
				c0.9-1.8,1.9-3.7,2.9-5.5c0.9-1.7,1.8-3.4,2.6-5.2c2.3-4.6,3.6-9.6,4.4-14.7c0.9-5.5,1.7-10.9,2.3-16.4c0.3-3.4,0.5-6.9,0.7-10.4
				c0.1-2.9,0.2-5.9,0.1-8.8c0-1.1,0.3-1.9,1-2.7c3.8-4.7,7.5-9.5,11.3-14.2c3.5-4.3,6.5-9,8.9-13.9c3.3-6.8,6.1-13.8,7.8-21.1
				c0.4-1.6,0.7-3.1,0.7-4.7c0-0.5-0.1-1.1,0.3-1.5c0,216.2,0,432.4,0,648.5C393.4,758.3,375.7,758.3,358,758.3z"/>
			<path class="st0" d="M244.9,758.3c0.2-0.2,0.4-0.4,0.6-0.5c0.4-0.2,0.9-0.3,1.3-0.4c2-0.7,2.6-1.5,2.4-3.6
				c-0.1-1.1-0.2-2.3-0.3-3.4c-0.5-4.8-0.9-9.7-1.4-14.5c-0.3-3.5-0.6-7-1-10.5c-0.5-5-1-9.9-1.4-14.9c-0.3-3.3-0.6-6.5-0.9-9.8
				c-0.5-5-1-10.1-1.5-15.1c-0.3-3.4-0.6-6.8-0.9-10.1c-0.5-5.2-1-10.3-1.4-15.5c-0.4-5.5-1.6-10.9-2.3-16.4
				c-0.6-4.7-1.3-9.4-1.9-14.1c-0.5-3.9-0.8-7.8-1.1-11.7c-0.2-3.3-0.3-6.5-0.4-9.8c-0.1-1.7-0.2-3.3-0.3-5
				c-0.1-0.8-0.1-1.6-0.1-2.4c0.1-1.2,1-2.2,2.1-2.2c1.5-0.1,2.9,0,4.4,0c0.2,0,0.4,0.1,0.6,0.2c1.5,0.9,3.2,1.6,4.7,2.7
				c0.1,0.8,0.1,1.5,0.1,2.2c0.4,7.9,1.5,15.6,3.6,23.2c1.9,6.7,3.4,13.4,4.6,20.2c0.1,0.4,0.1,0.8,0.1,1.2c0.1,2.2,0.3,4.4,0.4,6.6
				c0.4,6.6,0.8,13.2,1.1,19.7c0.2,3.3,0.3,6.7,0.5,10c0.4,6.1,0.7,12.2,1.1,18.3c0.2,3.4,0.4,6.8,0.5,10.2c0.3,6,0.7,12.1,1,18.1
				c0.2,3.6,0.4,7.2,0.6,10.8c0.2,3.1,0.3,6.1,0.5,9.2c0,0.3,0,0.5,0.1,0.8c0.3,1.8,1.1,2.5,3,2.5c0.8,0,1.6,0,2.4,0
				c1.4-0.1,2.2-0.9,2.5-2.2c0.2-0.9,0.2-1.8,0.3-2.8c0.5-5.1,1-10.2,1.5-15.3c0.5-4.8,0.9-9.5,1.4-14.3c0.5-4.8,1-9.7,1.4-14.5
				c0.3-3.2,0.6-6.4,0.9-9.5c0.5-5.1,1-10.2,1.5-15.3c0.3-3.2,0.6-6.4,0.9-9.5c0.5-5,1-10.1,1.5-15.1c0.3-3.3,0.6-6.6,0.9-9.9
				c0.5-4.9,1-9.8,1.4-14.7c0.2-2.2,0.4-4.4,0.6-6.6c0.1-0.7,0.1-1.5,0.4-2.2c0.4-1,1.1-1.4,2.2-1.1c4,1,8,1.2,12.1,1.2
				c4.3,0,8.5,0,12.8-0.1c2.7-0.1,5.4-0.4,8.2-0.6c0.7,0,1.3-0.1,2-0.2c1.3-0.1,1.7,0.2,1.9,1.5c0.2,1.1,0.3,2.3,0.4,3.4
				c0.5,5.2,1,10.5,1.5,15.7c0.5,4.9,0.9,9.8,1.4,14.7c0.5,4.8,1,9.5,1.4,14.3s0.9,9.5,1.4,14.3s1,9.5,1.4,14.3
				c0.3,3.4,0.6,6.8,1,10.1c0.5,4.8,1,9.7,1.4,14.5c0.3,3.3,0.6,6.5,0.9,9.7c0.5,5,1,10.1,1.5,15.1c0.1,0.8,0.1,1.6,0.2,2.4
				c0.2,1.8,1.1,2.6,2.9,2.7c0.7,0,1.5,0,2.2,0c1.8-0.1,2.7-0.9,2.8-2.7c0.2-2,0.3-4,0.4-6c0.4-6.5,0.7-13,1.1-19.5
				c0.2-3.4,0.4-6.8,0.5-10.2c0.3-6,0.7-12.1,1-18.1c0.2-3.5,0.4-7,0.6-10.6c0.3-5.9,0.7-11.8,1-17.7c0.1-2.6,0.3-5.2,0.4-7.8
				c0.2-3.6,0.4-7.2,0.5-10.8c0.1-3.1,0.7-6.1,1.3-9.1c1.2-5.7,2.5-11.3,4.1-16.9c1.3-4.6,2.1-9.3,2.6-14.1c0.3-3.2,0.6-6.4,0.9-9.7
				c1.1-0.8,2.4-1.5,3.6-2.4c0.5-0.4,1.1-0.4,1.7-0.4c1.1,0,2.3,0.1,3.4,0c1.9-0.2,3.3,1.3,3.1,3.2c-0.3,2.5-0.4,5-0.6,7.6
				c-0.1,2.2-0.1,4.4-0.2,6.6c-0.2,3.6-0.5,7.2-0.9,10.8c-0.6,5.5-1.4,11.1-2.2,16.6c-0.5,3.9-1.2,7.8-1.8,11.7
				c-0.2,1.5-0.4,3-0.6,4.6c-0.8,8.5-1.6,17-2.4,25.5c-0.6,6.2-1.2,12.5-1.8,18.7c-0.6,6.3-1.2,12.6-1.8,18.9
				c-0.5,5-0.9,10-1.4,14.9c-0.5,4.8-0.9,9.7-1.4,14.5c-0.1,0.9-0.2,1.7-0.2,2.6c0,1.6,0.5,2.3,1.9,2.9c0.9,0.3,1.9,0.3,2.5,1.1
				C319,758.3,281.9,758.3,244.9,758.3z"/>
			<path d="M73.9,39.9c0.1-0.3,0.2-0.5,0.5-1.1C74.4,39.5,74.3,39.8,73.9,39.9C73.8,39.8,73.9,39.9,73.9,39.9z"/>
		</g>
	</g>
</g>
</svg>
